<?xml version="1.0" encoding="UTF-8"?>
<svg xmlns="http://www.w3.org/2000/svg" viewBox="0 0 1738.67 1160">
  <defs>
    <style>
      .cls-1 {
        stroke: #0b3251;
      }

      .cls-1, .cls-2, .cls-3, .cls-4, .cls-5, .cls-6, .cls-7, .cls-8 {
        fill: none;
        stroke-miterlimit: 10;
        stroke-width: 1.71px;
      }

      .cls-2 {
        stroke: #4b7f9c;
      }

      .cls-9 {
        fill: #fff;
      }

      .cls-3 {
        stroke: #d4e4e9;
      }

      .cls-4 {
        stroke: #4b7f9b;
      }

      .cls-5 {
        stroke: #e43e38;
      }

      .cls-6 {
        stroke: #07283d;
      }

      .cls-7 {
        stroke: #6d9bb5;
      }

      .cls-8 {
        stroke: #4b7f99;
      }
    </style>
  </defs>
  <g id="BG">
    <rect class="cls-9" width="1738.67" height="1160"/>
  </g>
  <g id="Layer_1" data-name="Layer 1">
    <path class="cls-3" d="M134.45,284.7h0s0,0,0,0c47.57,19.95,101.48,18.12,147.59-5.01h0s0,0,0,0c-19.95,47.57-18.12,101.48,5.01,147.59h0s0,0,0,0c-47.57-19.95-101.48-18.12-147.59,5.01h0s0,0,0,0c19.95-47.57,18.12-101.48-5.01-147.59Z"/>
    <path class="cls-1" d="M328.5,279.91h0s0,0,0,0c47.57,19.95,101.48,18.12,147.59-5.01h0s0,0,0,0c-19.95,47.57-18.12,101.48,5.01,147.59h0s0,0,0,0c-47.57-19.95-101.48-18.12-147.59,5.01h0s0,0,0,0c19.95-47.57,18.12-101.48-5.01-147.59Z"/>
    <path class="cls-1" d="M724.18,282.08h0s0,0,0,0c47.57,19.95,101.48,18.12,147.59-5.01h0s0,0,0,0c-19.95,47.57-18.12,101.48,5.01,147.59h0s0,0,0,0c-47.57-19.95-101.48-18.12-147.59,5.01h0s0,0,0,0c19.95-47.57,18.12-101.48-5.01-147.59Z"/>
    <path class="cls-5" d="M522.54,275.13h0s0,0,0,0c47.57,19.95,101.48,18.12,147.59-5.01h0s0,0,0,0c-19.95,47.57-18.12,101.48,5.01,147.59h0s0,0,0,0c-47.57-19.95-101.48-18.12-147.59,5.01h0s0,0,0,0c19.95-47.57,18.12-101.48-5.01-147.59Z"/>
    <path class="cls-3" d="M716.59,270.35h0s0,0,0,0c47.57,19.95,101.48,18.12,147.59-5.01h0s0,0,0,0c-19.95,47.57-18.12,101.48,5.01,147.59h0s0,0,0,0c-47.57-19.95-101.48-18.12-147.59,5.01h0s0,0,0,0c19.95-47.57,18.12-101.48-5.01-147.59Z"/>
    <path class="cls-3" d="M910.63,265.56h0s0,0,0,0c47.57,19.95,101.48,18.12,147.59-5.01h0s0,0,0,0c-19.95,47.57-18.12,101.48,5.01,147.59h0s0,0,0,0c-47.57-19.95-101.48-18.12-147.59,5.01h0s0,0,0,0c19.95-47.57,18.12-101.48-5.01-147.59Z"/>
    <path class="cls-3" d="M1123.22,250.58h0s0,0,0,0c47.57,19.95,101.48,18.12,147.59-5.01h0s0,0,0,0c-19.95,47.57-18.12,101.48,5.01,147.59h0s0,0,0,0c-47.57-19.95-101.48-18.12-147.59,5.01h0s0,0,0,0c19.95-47.57,18.12-101.48-5.01-147.59Z"/>
    <path class="cls-5" d="M138.99,471.56h0s0,0,0,0c47.57,19.95,101.48,18.12,147.59-5.01h0s0,0,0,0c-19.95,47.57-18.12,101.48,5.01,147.59h0s0,0,0,0c-47.57-19.95-101.48-18.12-147.59,5.01h0s0,0,0,0c19.95-47.57,18.12-101.48-5.01-147.59Z"/>
    <path class="cls-5" d="M377.22,868.08h0s0,0,0,0c47.57,19.95,101.48,18.12,147.59-5.01h0s0,0,0,0c-19.95,47.57-18.12,101.48,5.01,147.59h0s0,0,0,0c-47.57-19.95-101.48-18.12-147.59,5.01h0s0,0,0,0c19.95-47.57,18.12-101.48-5.01-147.59Z"/>
    <path class="cls-5" d="M553.24,862.11h0s0,0,0,0c47.57,19.95,101.48,18.12,147.59-5.01h0s0,0,0,0c-19.95,47.57-18.12,101.48,5.01,147.59h0s0,0,0,0c-47.57-19.95-101.48-18.12-147.59,5.01h0s0,0,0,0c19.95-47.57,18.12-101.48-5.01-147.59Z"/>
    <path class="cls-5" d="M540.93,287.09h0s0,0,0,0c47.57,19.95,101.48,18.12,147.59-5.01h0s0,0,0,0c-19.95,47.57-18.12,101.48,5.01,147.59h0s0,0,0,0c-47.57-19.95-101.48-18.12-147.59,5.01h0s0,0,0,0c19.95-47.57,18.12-101.48-5.01-147.59Z"/>
    <path class="cls-5" d="M949.54,458.45h0s0,0,0,0c47.57,19.95,101.48,18.12,147.59-5.01h0s0,0,0,0c-19.95,47.57-18.12,101.48,5.01,147.59h0s0,0,0,0c-47.57-19.95-101.48-18.12-147.59,5.01h0s0,0,0,0c19.95-47.57,18.12-101.48-5.01-147.59Z"/>
    <path class="cls-5" d="M967.93,470.41h0s0,0,0,0c47.57,19.95,101.48,18.12,147.59-5.01h0s0,0,0,0c-19.95,47.57-18.12,101.48,5.01,147.59h0s0,0,0,0c-47.57-19.95-101.48-18.12-147.59,5.01h0s0,0,0,0c19.95-47.57,18.12-101.48-5.01-147.59Z"/>
    <path class="cls-5" d="M905.23,159.34h0s0,0,0,0c47.57,19.95,101.48,18.12,147.59-5.01h0s0,0,0,0c-19.95,47.57-18.12,101.48,5.01,147.59h0s0,0,0,0c-47.57-19.95-101.48-18.12-147.59,5.01h0s0,0,0,0c19.95-47.57,18.12-101.48-5.01-147.59Z"/>
    <path class="cls-3" d="M333.04,466.77h0s0,0,0,0c47.57,19.95,101.48,18.12,147.59-5.01h0s0,0,0,0c-19.95,47.57-18.12,101.48,5.01,147.59h0s0,0,0,0c-47.57-19.95-101.48-18.12-147.59,5.01h0s0,0,0,0c19.95-47.57,18.12-101.48-5.01-147.59Z"/>
    <path class="cls-5" d="M527.08,461.99h0s0,0,0,0c47.57,19.95,101.48,18.12,147.59-5.01h0s0,0,0,0c-19.95,47.57-18.12,101.48,5.01,147.59h0s0,0,0,0c-47.57-19.95-101.48-18.12-147.59,5.01h0s0,0,0,0c19.95-47.57,18.12-101.48-5.01-147.59Z"/>
    <path class="cls-5" d="M747.52,440.13h0s0,0,0,0c47.57,19.95,101.48,18.12,147.59-5.01h0s0,0,0,0c-19.95,47.57-18.12,101.48,5.01,147.59h0s0,0,0,0c-47.57-19.95-101.48-18.12-147.59,5.01h0s0,0,0,0c19.95-47.57,18.12-101.48-5.01-147.59Z"/>
    <path class="cls-5" d="M974.28,639.83h0s0,0,0,0c47.57,19.95,101.48,18.12,147.59-5.01h0s0,0,0,0c-19.95,47.57-18.12,101.48,5.01,147.59h0s0,0,0,0c-47.57-19.95-101.48-18.12-147.59,5.01h0s0,0,0,0c19.95-47.57,18.12-101.48-5.01-147.59Z"/>
    <path class="cls-5" d="M1164.73,635.17h0s0,0,0,0c47.57,19.95,101.48,18.12,147.59-5.01h0s0,0,0,0c-19.95,47.57-18.12,101.48,5.01,147.59h0s0,0,0,0c-47.57-19.95-101.48-18.12-147.59,5.01h0s0,0,0,0c19.95-47.57,18.12-101.48-5.01-147.59Z"/>
    <path class="cls-5" d="M922.29,273.56h0s0,0,0,0c47.57,19.95,101.48,18.12,147.59-5.01h0s0,0,0,0c-19.95,47.57-18.12,101.48,5.01,147.59h0s0,0,0,0c-47.57-19.95-101.48-18.12-147.59,5.01h0s0,0,0,0c19.95-47.57,18.12-101.48-5.01-147.59Z"/>
    <path class="cls-2" d="M721.13,457.21h0s0,0,0,0c47.57,19.95,101.48,18.12,147.59-5.01h0s0,0,0,0c-19.95,47.57-18.12,101.48,5.01,147.59h0s0,0,0,0c-47.57-19.95-101.48-18.12-147.59,5.01h0s0,0,0,0c19.95-47.57,18.12-101.48-5.01-147.59Z"/>
    <path class="cls-8" d="M915.17,452.42h0s0,0,0,0c47.57,19.95,101.48,18.12,147.59-5.01h0s0,0,0,0c-19.95,47.57-18.12,101.48,5.01,147.59h0s0,0,0,0c-47.57-19.95-101.48-18.12-147.59,5.01h0s0,0,0,0c19.95-47.57,18.12-101.48-5.01-147.59Z"/>
    <path class="cls-7" d="M937.84,440.73h0s0,0,0,0c44.45,26.17,98.12,31.62,146.92,14.92h0s0,0,0,0c-26.17,44.45-31.62,98.12-14.92,146.92h0s0,0,0,0c-44.45-26.17-98.12-31.62-146.92-14.92h0s0,0,0,0c26.17-44.45,31.62-98.12,14.92-146.92Z"/>
    <path class="cls-3" d="M143.53,658.42h0s0,0,0,0c47.57,19.95,101.48,18.12,147.59-5.01h0s0,0,0,0c-19.95,47.57-18.12,101.48,5.01,147.59h0s0,0,0,0c-47.57-19.95-101.48-18.12-147.59,5.01h0s0,0,0,0c19.95-47.57,18.12-101.48-5.01-147.59Z"/>
    <path class="cls-1" d="M337.58,653.63h0s0,0,0,0c47.57,19.95,101.48,18.12,147.59-5.01h0s0,0,0,0c-19.95,47.57-18.12,101.48,5.01,147.59h0s0,0,0,0c-47.57-19.95-101.48-18.12-147.59,5.01h0s0,0,0,0c19.95-47.57,18.12-101.48-5.01-147.59Z"/>
    <path class="cls-1" d="M547.33,475.69h0s0,0,0,0c47.57,19.95,101.48,18.12,147.59-5.01h0s0,0,0,0c-19.95,47.57-18.12,101.48,5.01,147.59h0s0,0,0,0c-47.57-19.95-101.48-18.12-147.59,5.01h0s0,0,0,0c19.95-47.57,18.12-101.48-5.01-147.59Z"/>
    <path class="cls-1" d="M745.12,634.42h0s0,0,0,0c47.57,19.95,101.48,18.12,147.59-5.01h0s0,0,0,0c-19.95,47.57-18.12,101.48,5.01,147.59h0s0,0,0,0c-47.57-19.95-101.48-18.12-147.59,5.01h0s0,0,0,0c19.95-47.57,18.12-101.48-5.01-147.59Z"/>
    <path class="cls-5" d="M992.65,456.99h0s0,0,0,0c47.57,19.95,101.48,18.12,147.59-5.01h0s0,0,0,0c-19.95,47.57-18.12,101.48,5.01,147.59h0s0,0,0,0c-47.57-19.95-101.48-18.12-147.59,5.01h0s0,0,0,0c19.95-47.57,18.12-101.48-5.01-147.59Z"/>
    <path class="cls-1" d="M1012.9,470.69h0s0,0,0,0c47.57,19.95,101.48,18.12,147.59-5.01h0s0,0,0,0c-19.95,47.57-18.12,101.48,5.01,147.59h0s0,0,0,0c-47.57-19.95-101.48-18.12-147.59,5.01h0s0,0,0,0c19.95-47.57,18.12-101.48-5.01-147.59Z"/>
    <path class="cls-5" d="M938.17,880.89h0s0,0,0,0c51.09,7.15,102.75-8.37,141.43-42.49h0s0,0,0,0c-7.15,51.09,8.37,102.75,42.49,141.43h0s0,0,0,0c-51.09-7.15-102.75,8.37-141.43,42.49h0s0,0,0,0c7.15-51.09-8.37-102.75-42.49-141.43Z"/>
    <path class="cls-1" d="M961.24,888.97h0s0,0,0,0c51.09,7.15,102.75-8.37,141.43-42.49h0s0,0,0,0c-7.15,51.09,8.37,102.75,42.49,141.43h0s0,0,0,0c-51.09-7.15-102.75,8.37-141.43,42.49h0s0,0,0,0c7.15-51.09-8.37-102.75-42.49-141.43Z"/>
    <path class="cls-3" d="M531.62,648.85h0s0,0,0,0c47.57,19.95,101.48,18.12,147.59-5.01h0s0,0,0,0c-19.95,47.57-18.12,101.48,5.01,147.59h0s0,0,0,0c-47.57-19.95-101.48-18.12-147.59,5.01h0s0,0,0,0c19.95-47.57,18.12-101.48-5.01-147.59Z"/>
    <path class="cls-3" d="M737.72,469.23h0s0,0,0,0c47.57,19.95,101.48,18.12,147.59-5.01h0s0,0,0,0c-19.95,47.57-18.12,101.48,5.01,147.59h0s0,0,0,0c-47.57-19.95-101.48-18.12-147.59,5.01h0s0,0,0,0c19.95-47.57,18.12-101.48-5.01-147.59Z"/>
    <path class="cls-5" d="M725.67,644.07h0s0,0,0,0c47.57,19.95,101.48,18.12,147.59-5.01h0s0,0,0,0c-19.95,47.57-18.12,101.48,5.01,147.59h0s0,0,0,0c-47.57-19.95-101.48-18.12-147.59,5.01h0s0,0,0,0c19.95-47.57,18.12-101.48-5.01-147.59Z"/>
    <path class="cls-7" d="M919.71,639.28h0s0,0,0,0c47.57,19.95,101.48,18.12,147.59-5.01h0s0,0,0,0c-19.95,47.57-18.12,101.48,5.01,147.59h0s0,0,0,0c-47.57-19.95-101.48-18.12-147.59,5.01h0s0,0,0,0c19.95-47.57,18.12-101.48-5.01-147.59Z"/>
    <path class="cls-7" d="M951.86,649.67h0s0,0,0,0c46.73,21.84,100.67,22.18,147.68.92h0s0,0,0,0c-21.84,46.73-22.18,100.67-.92,147.68h0s0,0,0,0c-46.73-21.84-100.67-22.18-147.68-.92h0s0,0,0,0c21.84-46.73,22.18-100.67.92-147.68Z"/>
    <path class="cls-5" d="M1100.62,880.79h0s0,0,0,0c47.57,19.95,101.48,18.12,147.59-5.01h0s0,0,0,0c-19.95,47.57-18.12,101.48,5.01,147.59h0s0,0,0,0c-47.57-19.95-101.48-18.12-147.59,5.01h0s0,0,0,0c19.95-47.57,18.12-101.48-5.01-147.59Z"/>
    <path class="cls-7" d="M927.45,867.4h0s0,0,0,0c47.57,19.95,101.48,18.12,147.59-5.01h0s0,0,0,0c-19.95,47.57-18.12,101.48,5.01,147.59h0s0,0,0,0c-47.57-19.95-101.48-18.12-147.59,5.01h0s0,0,0,0c19.95-47.57,18.12-101.48-5.01-147.59Z"/>
    <path class="cls-7" d="M959.6,877.78h0s0,0,0,0c46.73,21.84,100.67,22.18,147.68.92h0s0,0,0,0c-21.84,46.73-22.18,100.67-.92,147.68h0s0,0,0,0c-46.73-21.84-100.67-22.18-147.68-.92h0s0,0,0,0c21.84-46.73,22.18-100.67.92-147.68Z"/>
    <path class="cls-4" d="M148.07,845.28h0s0,0,0,0c47.57,19.95,101.48,18.12,147.59-5.01h0s0,0,0,0c-19.95,47.57-18.12,101.48,5.01,147.59h0s0,0,0,0c-47.57-19.95-101.48-18.12-147.59,5.01h0s0,0,0,0c19.95-47.57,18.12-101.48-5.01-147.59Z"/>
    <path class="cls-3" d="M342.12,840.49h0s0,0,0,0c47.57,19.95,101.48,18.12,147.59-5.01h0s0,0,0,0c-19.95,47.57-18.12,101.48,5.01,147.59h0s0,0,0,0c-47.57-19.95-101.48-18.12-147.59,5.01h0s0,0,0,0c19.95-47.57,18.12-101.48-5.01-147.59Z"/>
    <path class="cls-3" d="M548.32,840.69h0s0,0,0,0c47.57,19.95,101.48,18.12,147.59-5.01h0s0,0,0,0c-19.95,47.57-18.12,101.48,5.01,147.59h0s0,0,0,0c-47.57-19.95-101.48-18.12-147.59,5.01h0s0,0,0,0c19.95-47.57,18.12-101.48-5.01-147.59Z"/>
    <path class="cls-4" d="M536.16,835.71h0s0,0,0,0c47.57,19.95,101.48,18.12,147.59-5.01h0s0,0,0,0c-19.95,47.57-18.12,101.48,5.01,147.59h0s0,0,0,0c-47.57-19.95-101.48-18.12-147.59,5.01h0s0,0,0,0c19.95-47.57,18.12-101.48-5.01-147.59Z"/>
    <path class="cls-3" d="M930.39,370.93h0s0,0,0,0c38.03-34.85,58.94-84.58,57.23-136.14h0s0,0,0,0c34.85,38.03,84.58,58.94,136.14,57.23h0s0,0,0,0c-38.03,34.85-58.94,84.58-57.23,136.14h0s0,0,0,0c-34.85-38.03-84.58-58.94-136.14-57.23Z"/>
    <path class="cls-4" d="M920.78,379.89h0s0,0,0,0c38.03-34.85,58.94-84.58,57.23-136.14h0s0,0,0,0c34.85,38.03,84.58,58.94,136.14,57.23h0s0,0,0,0c-38.03,34.85-58.94,84.58-57.23,136.14h0s0,0,0,0c-34.85-38.03-84.58-58.94-136.14-57.23Z"/>
    <path class="cls-4" d="M549.07,650.66h0s0,0,0,0c47.57,19.95,101.48,18.12,147.59-5.01h0s0,0,0,0c-19.95,47.57-18.12,101.48,5.01,147.59h0s0,0,0,0c-47.57-19.95-101.48-18.12-147.59,5.01h0s0,0,0,0c19.95-47.57,18.12-101.48-5.01-147.59Z"/>
    <path class="cls-4" d="M927.02,915.29h0s0,0,0,0c50.71-9.43,94.78-40.55,120.63-85.19h0s0,0,0,0c9.43,50.71,40.55,94.78,85.19,120.63h0s0,0,0,0c-50.71,9.43-94.78,40.55-120.63,85.19h0s0,0,0,0c-9.43-50.71-40.55-94.78-85.19-120.63Z"/>
    <path class="cls-4" d="M938.99,495.37h0s0,0,0,0c51.57,1.05,101.03-20.49,135.4-58.96h0s0,0,0,0c-1.05,51.57,20.49,101.03,58.96,135.4h0s0,0,0,0c-51.57-1.05-101.03,20.49-135.4,58.96h0s0,0,0,0c1.05-51.57-20.49-101.03-58.96-135.4Z"/>
    <path class="cls-5" d="M1242.06,747.72h0s0,0,0,0c51.41-4.23,98.41-30.7,128.67-72.48h0s0,0,0,0c4.23,51.41,30.7,98.41,72.48,128.67h0s0,0,0,0c-51.41,4.23-98.41,30.7-128.67,72.48h0s0,0,0,0c-4.23-51.41-30.7-98.41-72.48-128.67Z"/>
    <path class="cls-5" d="M1263.89,749.86h0s0,0,0,0c51.41-4.23,98.41-30.7,128.67-72.48h0s0,0,0,0c4.23,51.41,30.7,98.41,72.48,128.67h0s0,0,0,0c-51.41,4.23-98.41,30.7-128.67,72.48h0s0,0,0,0c-4.23-51.41-30.7-98.41-72.48-128.67Z"/>
    <path class="cls-5" d="M1279.64,726.55h0s0,0,0,0c51.41-4.23,98.41-30.7,128.67-72.48h0s0,0,0,0c4.23,51.41,30.7,98.41,72.48,128.67h0s0,0,0,0c-51.41,4.23-98.41,30.7-128.67,72.48h0s0,0,0,0c-4.23-51.41-30.7-98.41-72.48-128.67Z"/>
    <path class="cls-1" d="M1303.92,729.37h0s0,0,0,0c51.41-4.23,98.41-30.7,128.67-72.48h0s0,0,0,0c4.23,51.41,30.7,98.41,72.48,128.67h0s0,0,0,0c-51.41,4.23-98.41,30.7-128.67,72.48h0s0,0,0,0c-4.23-51.41-30.7-98.41-72.48-128.67Z"/>
    <path class="cls-4" d="M1249.7,785.35h0s0,0,0,0c46.25-22.85,80.21-64.76,92.97-114.74h0s0,0,0,0c22.85,46.25,64.76,80.21,114.74,92.97h0s0,0,0,0c-46.25,22.85-80.21,64.76-92.97,114.74h0s0,0,0,0c-22.85-46.25-64.76-80.21-114.74-92.97Z"/>
    <path class="cls-1" d="M914.14,293.02h0s0,0,0,0c51.57,1.05,101.03-20.49,135.4-58.96h0s0,0,0,0c-1.05,51.57,20.49,101.03,58.96,135.4h0s0,0,0,0c-51.57-1.05-101.03,20.49-135.4,58.96h0s0,0,0,0c1.05-51.57-20.49-101.03-58.96-135.4Z"/>
    <path class="cls-1" d="M956.02,226.03h0s0,0,0,0c51.57,1.05,101.03-20.49,135.4-58.96h0s0,0,0,0c-1.05,51.57,20.49,101.03,58.96,135.4h0s0,0,0,0c-51.57-1.05-101.03,20.49-135.4,58.96h0s0,0,0,0c1.05-51.57-20.49-101.03-58.96-135.4Z"/>
    <path class="cls-1" d="M1250.33,396.7h0s0,0,0,0c51.57,1.05,101.03-20.49,135.4-58.96h0s0,0,0,0c-1.05,51.57,20.49,101.03,58.96,135.4h0s0,0,0,0c-51.57-1.05-101.03,20.49-135.4,58.96h0s0,0,0,0c1.05-51.57-20.49-101.03-58.96-135.4Z"/>
    <path class="cls-1" d="M539.31,787.11h0s0,0,0,0c28.55-42.96,36.91-96.25,22.88-145.89h0s0,0,0,0c42.96,28.55,96.25,36.91,145.89,22.88h0s0,0,0,0c-28.55,42.96-36.91,96.25-22.88,145.89h0s0,0,0,0c-42.96-28.55-96.25-36.91-145.89-22.88Z"/>
    <path class="cls-3" d="M740.1,857.57h0s0,0,0,0c47.57,19.95,101.48,18.12,147.59-5.01h0s0,0,0,0c-19.95,47.57-18.12,101.48,5.01,147.59h0s0,0,0,0c-47.57-19.95-101.48-18.12-147.59,5.01h0s0,0,0,0c19.95-47.57,18.12-101.48-5.01-147.59Z"/>
    <path class="cls-4" d="M757.55,859.37h0s0,0,0,0c47.57,19.95,101.48,18.12,147.59-5.01h0s0,0,0,0c-19.95,47.57-18.12,101.48,5.01,147.59h0s0,0,0,0c-47.57-19.95-101.48-18.12-147.59,5.01h0s0,0,0,0c19.95-47.57,18.12-101.48-5.01-147.59Z"/>
    <path class="cls-1" d="M336.76,594.38h0s0,0,0,0c28.55-42.96,36.91-96.25,22.88-145.89h0s0,0,0,0c42.96,28.55,96.25,36.91,145.89,22.88h0s0,0,0,0c-28.55,42.96-36.91,96.25-22.88,145.89h0s0,0,0,0c-42.96-28.55-96.25-36.91-145.89-22.88Z"/>
    <path class="cls-3" d="M958.55,691.49h0s0,0,0,0c51.54,2.18,101.46-18.27,136.66-55.97h0s0,0,0,0c-2.18,51.54,18.27,101.46,55.97,136.66h0s0,0,0,0c-51.54-2.18-101.46,18.27-136.66,55.97h0s0,0,0,0c2.18-51.54-18.27-101.46-55.97-136.66Z"/>
    <path class="cls-4" d="M975.54,687.12h0s0,0,0,0c51.54,2.18,101.46-18.27,136.66-55.97h0s0,0,0,0c-2.18,51.54,18.27,101.46,55.97,136.66h0s0,0,0,0c-51.54-2.18-101.46,18.27-136.66,55.97h0s0,0,0,0c2.18-51.54-18.27-101.46-55.97-136.66Z"/>
    <path class="cls-1" d="M1013.79,818.47h0s0,0,0,0c11.85-50.21,1.17-103.08-29.24-144.76h0s0,0,0,0c50.21,11.85,103.08,1.17,144.76-29.24h0s0,0,0,0c-11.85,50.21-1.17,103.08,29.24,144.76h0s0,0,0,0c-50.21-11.85-103.08-1.17-144.76,29.24Z"/>
    <path class="cls-1" d="M1470.57,828h0s0,0,0,0c11.85-50.21,1.17-103.08-29.24-144.76h0s0,0,0,0c50.21,11.85,103.08,1.17,144.76-29.24h0s0,0,0,0c-11.85,50.21-1.17,103.08,29.24,144.76h0s0,0,0,0c-50.21-11.85-103.08-1.17-144.76,29.24Z"/>
    <path class="cls-4" d="M738.99,665.79h0s0,0,0,0c47.57,19.95,101.48,18.12,147.59-5.01h0s0,0,0,0c-19.95,47.57-18.12,101.48,5.01,147.59h0s0,0,0,0c-47.57-19.95-101.48-18.12-147.59,5.01h0s0,0,0,0c19.95-47.57,18.12-101.48-5.01-147.59Z"/>
    <path class="cls-5" d="M730.21,830.93h0s0,0,0,0c47.57,19.95,101.48,18.12,147.59-5.01h0s0,0,0,0c-19.95,47.57-18.12,101.48,5.01,147.59h0s0,0,0,0c-47.57-19.95-101.48-18.12-147.59,5.01h0s0,0,0,0c19.95-47.57,18.12-101.48-5.01-147.59Z"/>
    <path class="cls-6" d="M924.25,826.14h0s0,0,0,0c47.57,19.95,101.48,18.12,147.59-5.01h0s0,0,0,0c-19.95,47.57-18.12,101.48,5.01,147.59h0s0,0,0,0c-47.57-19.95-101.48-18.12-147.59,5.01h0s0,0,0,0c19.95-47.57,18.12-101.48-5.01-147.59Z"/>
    <path class="cls-5" d="M949.95,841.46h0s0,0,0,0c47.57,19.95,101.48,18.12,147.59-5.01h0s0,0,0,0c-19.95,47.57-18.12,101.48,5.01,147.59h0s0,0,0,0c-47.57-19.95-101.48-18.12-147.59,5.01h0s0,0,0,0c19.95-47.57,18.12-101.48-5.01-147.59Z"/>
    <path class="cls-5" d="M1064.44,667.27h0s0,0,0,0c60.38,8.46,121.44-9.89,167.17-50.22h0s0,0,0,0c-8.46,60.38,9.89,121.44,50.22,167.17h0s0,0,0,0c-60.38-8.46-121.44,9.89-167.17,50.22h0s0,0,0,0c8.46-60.38-9.89-121.44-50.22-167.17Z"/>
    <path class="cls-1" d="M1091.7,676.83h0s0,0,0,0c60.38,8.46,121.44-9.89,167.17-50.22h0s0,0,0,0c-8.46,60.38,9.89,121.44,50.22,167.17h0s0,0,0,0c-60.38-8.46-121.44,9.89-167.17,50.22h0s0,0,0,0c8.46-60.38-9.89-121.44-50.22-167.17Z"/>
    <path class="cls-5" d="M1116.26,651.97h0s0,0,0,0c56.23,23.58,119.95,21.42,174.45-5.92h0s0,0,0,0c-23.58,56.23-21.42,119.95,5.92,174.45h0s0,0,0,0c-56.23-23.58-119.95-21.42-174.45,5.92h0s0,0,0,0c23.58-56.23,21.42-119.95-5.92-174.45Z"/>
    <path class="cls-7" d="M1051.76,651.32h0s0,0,0,0c56.23,23.58,119.95,21.42,174.45-5.92h0s0,0,0,0c-23.58,56.23-21.42,119.95,5.92,174.45h0s0,0,0,0c-56.23-23.58-119.95-21.42-174.45,5.92h0s0,0,0,0c23.58-56.23,21.42-119.95-5.92-174.45Z"/>
    <path class="cls-7" d="M1089.76,663.6h0s0,0,0,0c55.23,25.82,118.99,26.22,174.54,1.09h0s0,0,0,0c-25.82,55.23-26.22,118.99-1.09,174.54h0s0,0,0,0c-55.23-25.82-118.99-26.22-174.54-1.09h0s0,0,0,0c25.82-55.23,26.22-118.99,1.09-174.54Z"/>
    <path class="cls-4" d="M1051.26,707.92h0s0,0,0,0c59.94-11.15,112.02-47.93,142.58-100.69h0s0,0,0,0c11.15,59.94,47.93,112.02,100.69,142.58h0s0,0,0,0c-59.94,11.15-112.02,47.93-142.58,100.69h0s0,0,0,0c-11.15-59.94-47.93-112.02-100.69-142.58Z"/>
    <path class="cls-6" d="M1047.99,602.57h0s0,0,0,0c56.23,23.58,119.95,21.42,174.45-5.92h0s0,0,0,0c-23.58,56.23-21.42,119.95,5.92,174.45h0s0,0,0,0c-56.23-23.58-119.95-21.42-174.45,5.92h0s0,0,0,0c23.58-56.23,21.42-119.95-5.92-174.45Z"/>
    <path class="cls-6" d="M1244.45,536.56h0s0,0,0,0c56.23,23.58,119.95,21.42,174.45-5.92h0s0,0,0,0c-23.58,56.23-21.42,119.95,5.92,174.45h0s0,0,0,0c-56.23-23.58-119.95-21.42-174.45,5.92h0s0,0,0,0c23.58-56.23,21.42-119.95-5.92-174.45Z"/>
    <path class="cls-5" d="M1078.36,620.66h0s0,0,0,0c56.23,23.58,119.95,21.42,174.45-5.92h0s0,0,0,0c-23.58,56.23-21.42,119.95,5.92,174.45h0s0,0,0,0c-56.23-23.58-119.95-21.42-174.45,5.92h0s0,0,0,0c23.58-56.23,21.42-119.95-5.92-174.45Z"/>
    <path class="cls-5" d="M972.26,295.32h0s0,0,0,0c51.09,7.15,102.75-8.37,141.43-42.49h0s0,0,0,0c-7.15,51.09,8.37,102.75,42.49,141.43h0s0,0,0,0c-51.09-7.15-102.75,8.37-141.43,42.49h0s0,0,0,0c7.15-51.09-8.37-102.75-42.49-141.43Z"/>
    <path class="cls-1" d="M995.33,303.4h0s0,0,0,0c51.09,7.15,102.75-8.37,141.43-42.49h0s0,0,0,0c-7.15,51.09,8.37,102.75,42.49,141.43h0s0,0,0,0c-51.09-7.15-102.75,8.37-141.43,42.49h0s0,0,0,0c7.15-51.09-8.37-102.75-42.49-141.43Z"/>
    <path class="cls-1" d="M749.68,276.86h0s0,0,0,0c51.09,7.15,102.75-8.37,141.43-42.49h0s0,0,0,0c-7.15,51.09,8.37,102.75,42.49,141.43h0s0,0,0,0c-51.09-7.15-102.75,8.37-141.43,42.49h0s0,0,0,0c7.15-51.09-8.37-102.75-42.49-141.43Z"/>
    <path class="cls-4" d="M961.11,329.71h0s0,0,0,0c50.71-9.43,94.78-40.55,120.63-85.19h0s0,0,0,0c9.43,50.71,40.55,94.78,85.19,120.63h0s0,0,0,0c-50.71,9.43-94.78,40.55-120.63,85.19h0s0,0,0,0c-9.43-50.71-40.55-94.78-85.19-120.63Z"/>
    <path class="cls-4" d="M1160.02,267.48h0s0,0,0,0c51.29,5.54,102.43-11.6,140.02-46.93h0s0,0,0,0c-5.54,51.29,11.6,102.43,46.93,140.02h0s0,0,0,0c-51.29-5.54-102.43,11.6-140.02,46.93h0s0,0,0,0c5.54-51.29-11.6-102.43-46.93-140.02Z"/>
    <path class="cls-4" d="M1263.57,119.83h0s0,0,0,0c51.29,5.54,102.43-11.6,140.02-46.93h0s0,0,0,0c-5.54,51.29,11.6,102.43,46.93,140.02h0s0,0,0,0c-51.29-5.54-102.43,11.6-140.02,46.93h0s0,0,0,0c5.54-51.29-11.6-102.43-46.93-140.02Z"/>
    <path class="cls-4" d="M1159.75,167.26h0s0,0,0,0c51.29,5.54,102.43-11.6,140.02-46.93h0s0,0,0,0c-5.54,51.29,11.6,102.43,46.93,140.02h0s0,0,0,0c-51.29-5.54-102.43,11.6-140.02,46.93h0s0,0,0,0c5.54-51.29-11.6-102.43-46.93-140.02Z"/>
    <path class="cls-6" d="M958.34,240.57h0s0,0,0,0c47.57,19.95,101.48,18.12,147.59-5.01h0s0,0,0,0c-19.95,47.57-18.12,101.48,5.01,147.59h0s0,0,0,0c-47.57-19.95-101.48-18.12-147.59,5.01h0s0,0,0,0c19.95-47.57,18.12-101.48-5.01-147.59Z"/>
    <path class="cls-5" d="M984.03,255.88h0s0,0,0,0c47.57,19.95,101.48,18.12,147.59-5.01h0s0,0,0,0c-19.95,47.57-18.12,101.48,5.01,147.59h0s0,0,0,0c-47.57-19.95-101.48-18.12-147.59,5.01h0s0,0,0,0c19.95-47.57,18.12-101.48-5.01-147.59Z"/>
    <path class="cls-3" d="M1385.09,757.43h0s0,0,0,0c18.28-48.24,14.58-102.05-10.14-147.33h0s0,0,0,0c48.24,18.28,102.05,14.58,147.33-10.14h0s0,0,0,0c-18.28,48.24-14.58,102.05,10.14,147.33h0s0,0,0,0c-48.24-18.28-102.05-14.58-147.33,10.14Z"/>
    <path class="cls-5" d="M1392.68,745.5h0s0,0,0,0c18.28-48.24,14.58-102.05-10.14-147.33h0s0,0,0,0c48.24,18.28,102.05,14.58,147.33-10.14h0s0,0,0,0c-18.28,48.24-14.58,102.05,10.14,147.33h0s0,0,0,0c-48.24-18.28-102.05-14.58-147.33,10.14Z"/>
    <path class="cls-3" d="M1489.71,734.02h0s0,0,0,0c-36.15-36.79-86.58-55.96-138.05-52.46h0s0,0,0,0c36.79-36.15,55.96-86.58,52.46-138.05h0s0,0,0,0c36.15,36.79,86.58,55.96,138.05,52.46h0s0,0,0,0c-36.79,36.15-55.96,86.58-52.46,138.05Z"/>
    <path class="cls-4" d="M1498.99,743.32h0s0,0,0,0c-36.15-36.79-86.58-55.96-138.05-52.46h0s0,0,0,0c36.79-36.15,55.96-86.58,52.46-138.05h0s0,0,0,0c36.15,36.79,86.58,55.96,138.05,52.46h0s0,0,0,0c-36.79,36.15-55.96,86.58-52.46,138.05Z"/>
    <path class="cls-1" d="M1483.14,741.47h0s0,0,0,0c-.75-51.58-23.99-100.26-63.64-133.26h0s0,0,0,0c51.58-.75,100.26-23.99,133.26-63.64h0s0,0,0,0c.75,51.58,23.99,100.26,63.64,133.26h0s0,0,0,0c-51.58.75-100.26,23.99-133.26,63.64Z"/>
    <path class="cls-5" d="M1412.68,694.81h0s0,0,0,0c5.37-51.3-11.94-102.4-47.38-139.87h0s0,0,0,0c51.3,5.37,102.4-11.94,139.87-47.38h0s0,0,0,0c-5.37,51.3,11.94,102.4,47.38,139.87h0s0,0,0,0c-51.3-5.37-102.4,11.94-139.87,47.38Z"/>
    <path class="cls-1" d="M1419.96,671.48h0s0,0,0,0c5.37-51.3-11.94-102.4-47.38-139.87h0s0,0,0,0c51.3,5.37,102.4-11.94,139.87-47.38h0s0,0,0,0c-5.37,51.3,11.94,102.4,47.38,139.87h0s0,0,0,0c-51.3-5.37-102.4,11.94-139.87,47.38Z"/>
    <path class="cls-4" d="M1447.44,704.76h0s0,0,0,0c-11.19-50.36-43.82-93.31-89.33-117.59h0s0,0,0,0c50.36-11.19,93.31-43.82,117.59-89.33h0s0,0,0,0c11.19,50.36,43.82,93.31,89.33,117.59h0s0,0,0,0c-50.36,11.19-93.31,43.82-117.59,89.33Z"/>
    <path class="cls-6" d="M1358.45,710.63h0s0,0,0,0c18.28-48.24,14.58-102.05-10.14-147.33h0s0,0,0,0c48.24,18.28,102.05,14.58,147.33-10.14h0s0,0,0,0c-18.28,48.24-14.58,102.05,10.14,147.33h0s0,0,0,0c-48.24-18.28-102.05-14.58-147.33,10.14Z"/>
    <path class="cls-5" d="M1372.86,684.42h0s0,0,0,0c18.28-48.24,14.58-102.05-10.14-147.33h0s0,0,0,0c48.24,18.28,102.05,14.58,147.33-10.14h0s0,0,0,0c-18.28,48.24-14.58,102.05,10.14,147.33h0s0,0,0,0c-48.24-18.28-102.05-14.58-147.33,10.14Z"/>
    <path class="cls-5" d="M1510.71,431.59h0s0,0,0,0c-53.51-26.53-115.94-28.35-170.91-5h0s0,0,0,0c26.53-53.51,28.35-115.94,5-170.91h0s0,0,0,0c53.51,26.53,115.94,28.35,170.91,5h0s0,0,0,0c-26.53,53.51-28.35,115.94-5,170.91Z"/>
    <path class="cls-1" d="M1488.32,414.29h0s0,0,0,0c-53.51-26.53-115.94-28.35-170.91-5h0s0,0,0,0c26.53-53.51,28.35-115.94,5-170.91h0s0,0,0,0c53.51,26.53,115.94,28.35,170.91,5h0s0,0,0,0c-26.53,53.51-28.35,115.94-5,170.91Z"/>
    <path class="cls-4" d="M1535.52,397.88h0s0,0,0,0c-59.16-8.17-118.94,9.92-163.65,49.51h0s0,0,0,0c8.17-59.16-9.92-118.94-49.51-163.65h0s0,0,0,0c59.16,8.17,118.94-9.92,163.65-49.51h0s0,0,0,0c-8.17,59.16,9.92,118.94,49.51,163.65Z"/>
    <path class="cls-5" d="M1483.36,470.62h0s0,0,0,0c-44.97-39.3-104.87-56.99-163.98-48.43h0s0,0,0,0c39.3-44.97,56.99-104.87,48.43-163.98h0s0,0,0,0c44.97,39.3,104.87,56.99,163.98,48.43h0s0,0,0,0c-39.3,44.97-56.99,104.87-48.43,163.98Z"/>
    <path class="cls-3" d="M1410.16,1014.83h0s0,0,0,0c17.58-48.5,13.1-102.25-12.27-147.17h0s0,0,0,0c48.5,17.58,102.25,13.1,147.17-12.27h0s0,0,0,0c-17.58,48.5-13.1,102.25,12.27,147.17h0s0,0,0,0c-48.5-17.58-102.25-13.1-147.17,12.27Z"/>
    <path class="cls-5" d="M1417.57,1002.79h0s0,0,0,0c17.58-48.5,13.1-102.25-12.27-147.17h0s0,0,0,0c48.5,17.58,102.25,13.1,147.17-12.27h0s0,0,0,0c-17.58,48.5-13.1,102.25,12.27,147.17h0s0,0,0,0c-48.5-17.58-102.25-13.1-147.17,12.27Z"/>
    <path class="cls-3" d="M1514.43,989.91h0s0,0,0,0c-36.68-36.27-87.38-54.7-138.79-50.46h0s0,0,0,0c36.27-36.68,54.7-87.38,50.46-138.79h0s0,0,0,0c36.68,36.27,87.38,54.7,138.79,50.46h0s0,0,0,0c-36.27,36.68-54.7,87.38-50.46,138.79Z"/>
    <path class="cls-4" d="M1443.7,491.65h0s0,0,0,0c-36.15-36.79-86.58-55.96-138.05-52.46h0s0,0,0,0c36.79-36.15,55.96-86.58,52.46-138.05h0s0,0,0,0c36.15,36.79,86.58,55.96,138.05,52.46h0s0,0,0,0c-36.79,36.15-55.96,86.58-52.46,138.05Z"/>
    <path class="cls-4" d="M1597.93,449.26h0s0,0,0,0c-36.15-36.79-86.58-55.96-138.05-52.46h0s0,0,0,0c36.79-36.15,55.96-86.58,52.46-138.05h0s0,0,0,0c36.15,36.79,86.58,55.96,138.05,52.46h0s0,0,0,0c-36.79,36.15-55.96,86.58-52.46,138.05Z"/>
    <path class="cls-1" d="M1232.51,485.75h0s0,0,0,0c-.75-51.58-23.99-100.26-63.64-133.26h0s0,0,0,0c51.58-.75,100.26-23.99,133.26-63.64h0s0,0,0,0c.75,51.58,23.99,100.26,63.64,133.26h0s0,0,0,0c-51.58.75-100.26,23.99-133.26,63.64Z"/>
    <path class="cls-5" d="M1436.84,951.81h0s0,0,0,0c4.63-51.38-13.41-102.21-49.4-139.17h0s0,0,0,0c51.38,4.63,102.21-13.41,139.17-49.4h0s0,0,0,0c-4.63,51.38,13.41,102.21,49.4,139.17h0s0,0,0,0c-51.38-4.63-102.21,13.41-139.17,49.4Z"/>
    <path class="cls-1" d="M1443.78,928.38h0s0,0,0,0c4.63-51.38-13.41-102.21-49.4-139.17h0s0,0,0,0c51.38,4.63,102.21-13.41,139.17-49.4h0s0,0,0,0c-4.63,51.38,13.41,102.21,49.4,139.17h0s0,0,0,0c-51.38-4.63-102.21,13.41-139.17,49.4Z"/>
    <path class="cls-4" d="M1471.74,961.26h0s0,0,0,0c-11.92-50.19-45.17-92.67-91.02-116.29h0s0,0,0,0c50.19-11.92,92.67-45.17,116.29-91.02h0s0,0,0,0c11.92,50.19,45.17,92.67,91.02,116.29h0s0,0,0,0c-50.19,11.92-92.67,45.17-116.29,91.02Z"/>
    <path class="cls-5" d="M1314.59,472.5h0s0,0,0,0c-30.64-41.5-77.88-67.55-129.32-71.3h0s0,0,0,0c41.5-30.64,67.55-77.88,71.3-129.32h0s0,0,0,0c30.64,41.5,77.88,67.55,129.32,71.3h0s0,0,0,0c-41.5,30.64-67.55,77.88-71.3,129.32Z"/>
    <path class="cls-3" d="M1357.52,384.72h0s0,0,0,0c-50.51,10.45-93.94,42.45-118.89,87.6h0s0,0,0,0c-10.45-50.51-42.45-93.94-87.6-118.89h0s0,0,0,0c50.51-10.45,93.94-42.45,118.89-87.6h0s0,0,0,0c10.45,50.51,42.45,93.94,87.6,118.89Z"/>
    <path class="cls-3" d="M1379.64,251.72h0s0,0,0,0c-50.51,10.45-93.94,42.45-118.89,87.6h0s0,0,0,0c-10.45-50.51-42.45-93.94-87.6-118.89h0s0,0,0,0c50.51-10.45,93.94-42.45,118.89-87.6h0s0,0,0,0c10.45,50.51,42.45,93.94,87.6,118.89Z"/>
    <path class="cls-5" d="M1282.83,428.22h0s0,0,0,0c-40.21-32.31-92.53-45.45-143.23-35.96h0s0,0,0,0c32.31-40.21,45.45-92.53,35.96-143.23h0s0,0,0,0c40.21,32.31,92.53,45.45,143.23,35.96h0s0,0,0,0c-32.31,40.21-45.45,92.53-35.96,143.23Z"/>
    <path class="cls-1" d="M1267.16,409.46h0s0,0,0,0c-40.21-32.31-92.53-45.45-143.23-35.96h0s0,0,0,0c32.31-40.21,45.45-92.53,35.96-143.23h0s0,0,0,0c40.21,32.31,92.53,45.45,143.23,35.96h0s0,0,0,0c-32.31,40.21-45.45,92.53-35.96,143.23Z"/>
    <path class="cls-4" d="M1310.02,404.39h0s0,0,0,0c-48.39-17.88-102.17-13.72-147.24,11.37h0s0,0,0,0c17.88-48.39,13.72-102.17-11.37-147.24h0s0,0,0,0c48.39,17.88,102.17,13.72,147.24-11.37h0s0,0,0,0c-17.88,48.39-13.72,102.17,11.37,147.24Z"/>
    <path class="cls-5" d="M1547.5,545.83h0s0,0,0,0c-56.59-14.36-116.64-3.28-164.38,30.33h0s0,0,0,0c14.36-56.59,3.28-116.64-30.33-164.38h0s0,0,0,0c56.59,14.36,116.64,3.28,164.38-30.33h0s0,0,0,0c-14.36,56.59-3.28,116.64,30.33,164.38Z"/>
    <path class="cls-3" d="M1632.63,468.14h0s0,0,0,0c-36.73,45.39-51.8,104.55-41.26,161.98h0s0,0,0,0c-45.39-36.73-104.55-51.8-161.98-41.26h0s0,0,0,0c36.73-45.39,51.8-104.55,41.26-161.98h0s0,0,0,0c45.39,36.73,104.55,51.8,161.98,41.26Z"/>
    <path class="cls-5" d="M1531.52,542.75h0s0,0,0,0c-58.38.55-113.61,26.58-151.2,71.26h0s0,0,0,0c-.55-58.38-26.58-113.61-71.26-151.2h0s0,0,0,0c58.38-.55,113.61-26.58,151.2-71.26h0s0,0,0,0c.55,58.38,26.58,113.61,71.26,151.2Z"/>
    <path class="cls-5" d="M1394.8,252.65h0s0,0,0,0c-58.38.55-113.61,26.58-151.2,71.26h0s0,0,0,0c-.55-58.38-26.58-113.61-71.26-151.2h0s0,0,0,0c58.38-.55,113.61-26.58,151.2-71.26h0s0,0,0,0c.55,58.38,26.58,113.61,71.26,151.2Z"/>
    <path class="cls-5" d="M1323.87,230.67h0s0,0,0,0c-53.05-24.39-114.1-24.39-167.15,0h0s0,0,0,0c24.39-53.05,24.39-114.1,0-167.15h0s0,0,0,0c53.05,24.39,114.1,24.39,167.15,0h0s0,0,0,0c-24.39,53.05-24.39,114.1,0,167.15Z"/>
    <path class="cls-1" d="M1504.35,537.57h0s0,0,0,0c-58.38.55-113.61,26.58-151.2,71.26h0s0,0,0,0c-.55-58.38-26.58-113.61-71.26-151.2h0s0,0,0,0c58.38-.55,113.61-26.58,151.2-71.26h0s0,0,0,0c.55,58.38,26.58,113.61,71.26,151.2Z"/>
    <path class="cls-4" d="M1538.24,502.39h0s0,0,0,0c-55.19,19.06-99.3,61.27-120.76,115.57h0s0,0,0,0c-19.06-55.19-61.27-99.3-115.57-120.76h0s0,0,0,0c55.19-19.06,99.3-61.27,120.76-115.57h0s0,0,0,0c19.06,55.19,61.27,99.3,115.57,120.76Z"/>
    <path class="cls-6" d="M1303.16,458.95h0s0,0,0,0c18.28-48.24,14.58-102.05-10.14-147.33h0s0,0,0,0c48.24,18.28,102.05,14.58,147.33-10.14h0s0,0,0,0c-18.28,48.24-14.58,102.05,10.14,147.33h0s0,0,0,0c-48.24-18.28-102.05-14.58-147.33,10.14Z"/>
    <path class="cls-6" d="M1303.09,282.88h0s0,0,0,0c18.28-48.24,14.58-102.05-10.14-147.33h0s0,0,0,0c48.24,18.28,102.05,14.58,147.33-10.14h0s0,0,0,0c-18.28,48.24-14.58,102.05,10.14,147.33h0s0,0,0,0c-48.24-18.28-102.05-14.58-147.33,10.14Z"/>
    <path class="cls-6" d="M1054.9,270.33h0s0,0,0,0c18.28-48.24,14.58-102.05-10.14-147.33h0s0,0,0,0c48.24,18.28,102.05,14.58,147.33-10.14h0s0,0,0,0c-18.28,48.24-14.58,102.05,10.14,147.33h0s0,0,0,0c-48.24-18.28-102.05-14.58-147.33,10.14Z"/>
    <path class="cls-5" d="M1317.57,432.74h0s0,0,0,0c18.28-48.24,14.58-102.05-10.14-147.33h0s0,0,0,0c48.24,18.28,102.05,14.58,147.33-10.14h0s0,0,0,0c-18.28,48.24-14.58,102.05,10.14,147.33h0s0,0,0,0c-48.24-18.28-102.05-14.58-147.33,10.14Z"/>
    <path class="cls-5" d="M1420.07,296.01h0s0,0,0,0c18.28-48.24,14.58-102.05-10.14-147.33h0s0,0,0,0c48.24,18.28,102.05,14.58,147.33-10.14h0s0,0,0,0c-18.28,48.24-14.58,102.05,10.14,147.33h0s0,0,0,0c-48.24-18.28-102.05-14.58-147.33,10.14Z"/>
    <path class="cls-3" d="M1117.17,841.18h0s0,0,0,0c47.57,19.95,101.48,18.12,147.59-5.01h0s0,0,0,0c-19.95,47.57-18.12,101.48,5.01,147.59h0s0,0,0,0c-47.57-19.95-101.48-18.12-147.59,5.01h0s0,0,0,0c19.95-47.57,18.12-101.48-5.01-147.59Z"/>
    <path class="cls-5" d="M1128.83,849.18h0s0,0,0,0c47.57,19.95,101.48,18.12,147.59-5.01h0s0,0,0,0c-19.95,47.57-18.12,101.48,5.01,147.59h0s0,0,0,0c-47.57-19.95-101.48-18.12-147.59,5.01h0s0,0,0,0c19.95-47.57,18.12-101.48-5.01-147.59Z"/>
    <path class="cls-3" d="M1136.93,946.55h0s0,0,0,0c38.03-34.85,58.94-84.58,57.23-136.14h0s0,0,0,0c34.85,38.03,84.58,58.94,136.14,57.23h0s0,0,0,0c-38.03,34.85-58.94,84.58-57.23,136.14h0s0,0,0,0c-34.85-38.03-84.58-58.94-136.14-57.23Z"/>
    <path class="cls-4" d="M1127.31,955.5h0s0,0,0,0c38.03-34.85,58.94-84.58,57.23-136.14h0s0,0,0,0c34.85,38.03,84.58,58.94,136.14,57.23h0s0,0,0,0c-38.03,34.85-58.94,84.58-57.23,136.14h0s0,0,0,0c-34.85-38.03-84.58-58.94-136.14-57.23Z"/>
    <path class="cls-1" d="M1120.68,868.63h0s0,0,0,0c51.57,1.05,101.03-20.49,135.4-58.96h0s0,0,0,0c-1.05,51.57,20.49,101.03,58.96,135.4h0s0,0,0,0c-51.57-1.05-101.03,20.49-135.4,58.96h0s0,0,0,0c1.05-51.57-20.49-101.03-58.96-135.4Z"/>
    <path class="cls-5" d="M1178.79,870.93h0s0,0,0,0c51.09,7.15,102.75-8.37,141.43-42.49h0s0,0,0,0c-7.15,51.09,8.37,102.75,42.49,141.43h0s0,0,0,0c-51.09-7.15-102.75,8.37-141.43,42.49h0s0,0,0,0c7.15-51.09-8.37-102.75-42.49-141.43Z"/>
    <path class="cls-1" d="M1201.86,879.01h0s0,0,0,0c51.09,7.15,102.75-8.37,141.43-42.49h0s0,0,0,0c-7.15,51.09,8.37,102.75,42.49,141.43h0s0,0,0,0c-51.09-7.15-102.75,8.37-141.43,42.49h0s0,0,0,0c7.15-51.09-8.37-102.75-42.49-141.43Z"/>
    <path class="cls-4" d="M1167.64,905.33h0s0,0,0,0c50.71-9.43,94.78-40.55,120.63-85.19h0s0,0,0,0c9.43,50.71,40.55,94.78,85.19,120.63h0s0,0,0,0c-50.71,9.43-94.78,40.55-120.63,85.19h0s0,0,0,0c-9.43-50.71-40.55-94.78-85.19-120.63Z"/>
    <path class="cls-6" d="M1164.88,816.18h0s0,0,0,0c47.57,19.95,101.48,18.12,147.59-5.01h0s0,0,0,0c-19.95,47.57-18.12,101.48,5.01,147.59h0s0,0,0,0c-47.57-19.95-101.48-18.12-147.59,5.01h0s0,0,0,0c19.95-47.57,18.12-101.48-5.01-147.59Z"/>
    <path class="cls-5" d="M1476.82,835.8h0s0,0,0,0c47.57,19.95,101.48,18.12,147.59-5.01h0s0,0,0,0c-19.95,47.57-18.12,101.48,5.01,147.59h0s0,0,0,0c-47.57-19.95-101.48-18.12-147.59,5.01h0s0,0,0,0c19.95-47.57,18.12-101.48-5.01-147.59Z"/>
    <path class="cls-5" d="M1287.49,964.52h0s0,0,0,0c40.71-31.68,65.55-79.57,68-131.09h0s0,0,0,0c31.68,40.71,79.57,65.55,131.09,68h0s0,0,0,0c-40.71,31.68-65.55,79.57-68,131.09h0s0,0,0,0c-31.68-40.71-79.57-65.55-131.09-68Z"/>
    <path class="cls-1" d="M1309.35,953.6h0s0,0,0,0c40.71-31.68,65.55-79.57,68-131.09h0s0,0,0,0c31.68,40.71,79.57,65.55,131.09,68h0s0,0,0,0c-40.71,31.68-65.55,79.57-68,131.09h0s0,0,0,0c-31.68-40.71-79.57-65.55-131.09-68Z"/>
    <path class="cls-5" d="M1267.38,928.61h0s0,0,0,0c47.44-20.25,83.67-60.21,99.19-109.41h0s0,0,0,0c20.25,47.44,60.21,83.67,109.41,99.19h0s0,0,0,0c-47.44,20.25-83.67,60.21-99.19,109.41h0s0,0,0,0c-20.25-47.44-60.21-83.67-109.41-99.19Z"/>
    <path class="cls-3" d="M1106.72,427.05h0s0,0,0,0c56.59,23.73,120.72,21.56,175.56-5.95h0s0,0,0,0c-23.73,56.59-21.56,120.72,5.95,175.56h0s0,0,0,0c-56.59-23.73-120.72-21.56-175.56,5.95h0s0,0,0,0c23.73-56.59,21.56-120.72-5.95-175.56Z"/>
    <path class="cls-5" d="M1120.59,436.56h0s0,0,0,0c56.59,23.73,120.72,21.56,175.56-5.95h0s0,0,0,0c-23.73,56.59-21.56,120.72,5.95,175.56h0s0,0,0,0c-56.59-23.73-120.72-21.56-175.56,5.95h0s0,0,0,0c23.73-56.59,21.56-120.72-5.95-175.56Z"/>
    <path class="cls-3" d="M1199.29,643.22h0s0,0,0,0c1.09-61.35-24.68-120.12-70.55-160.88h0s0,0,0,0c61.35,1.09,120.12-24.68,160.88-70.55h0s0,0,0,0c-1.09,61.35,24.68,120.12,70.55,160.88h0s0,0,0,0c-61.35-1.09-120.12,24.68-160.88,70.55Z"/>
    <path class="cls-4" d="M1199.14,658.85h0s0,0,0,0c1.09-61.35-24.68-120.12-70.55-160.88h0s0,0,0,0c61.35,1.09,120.12-24.68,160.88-70.55h0s0,0,0,0c-1.09,61.35,24.68,120.12,70.55,160.88h0s0,0,0,0c-61.35-1.09-120.12,24.68-160.88,70.55Z"/>
    <path class="cls-1" d="M1110.89,459.71h0s0,0,0,0c61.35,1.24,120.18-24.37,161.06-70.13h0s0,0,0,0c-1.24,61.35,24.37,120.18,70.13,161.06h0s0,0,0,0c-61.35-1.24-120.18,24.37-161.06,70.13h0s0,0,0,0c1.24-61.35-24.37-120.18-70.13-161.06Z"/>
    <path class="cls-5" d="M1168.36,545.17h0s0,0,0,0c48.02-38.2,76.95-95.48,79.2-156.8h0s0,0,0,0c38.2,48.02,95.48,76.95,156.8,79.2h0s0,0,0,0c-48.02,38.2-76.95,95.48-79.2,156.8h0s0,0,0,0c-38.2-48.02-95.48-76.95-156.8-79.2Z"/>
    <path class="cls-1" d="M1194.23,531.89h0s0,0,0,0c48.02-38.2,76.95-95.48,79.2-156.8h0s0,0,0,0c38.2,48.02,95.48,76.95,156.8,79.2h0s0,0,0,0c-48.02,38.2-76.95,95.48-79.2,156.8h0s0,0,0,0c-38.2-48.02-95.48-76.95-156.8-79.2Z"/>
    <path class="cls-4" d="M1188.9,582.96h0s0,0,0,0c33.4-51.47,42.66-114.97,25.33-173.83h0s0,0,0,0c51.47,33.4,114.97,42.66,173.83,25.33h0s0,0,0,0c-33.4,51.47-42.66,114.97-25.33,173.83h0s0,0,0,0c-51.47-33.4-114.97-42.66-173.83-25.33Z"/>
    <path class="cls-6" d="M1161.37,550.14h0s0,0,0,0c56.17-24.69,98.76-72.69,116.58-131.41h0s0,0,0,0c24.69,56.17,72.69,98.76,131.41,116.58h0s0,0,0,0c-56.17,24.69-98.76,72.69-116.58,131.41h0s0,0,0,0c-24.69-56.17-72.69-98.76-131.41-116.58Z"/>
    <path class="cls-5" d="M1143.99,502.71h0s0,0,0,0c56.17-24.69,98.76-72.69,116.58-131.41h0s0,0,0,0c24.69,56.17,72.69,98.76,131.41,116.58h0s0,0,0,0c-56.17,24.69-98.76,72.69-116.58,131.41h0s0,0,0,0c-24.69-56.17-72.69-98.76-131.41-116.58Z"/>
    <path class="cls-5" d="M755.01,855.26h0s0,0,0,0c47.57,19.95,101.48,18.12,147.59-5.01h0s0,0,0,0c-19.95,47.57-18.12,101.48,5.01,147.59h0s0,0,0,0c-47.57-19.95-101.48-18.12-147.59,5.01h0s0,0,0,0c19.95-47.57,18.12-101.48-5.01-147.59Z"/>
    <path class="cls-5" d="M901.63,636.3h0s0,0,0,0c47.57,19.95,101.48,18.12,147.59-5.01h0s0,0,0,0c-19.95,47.57-18.12,101.48,5.01,147.59h0s0,0,0,0c-47.57-19.95-101.48-18.12-147.59,5.01h0s0,0,0,0c19.95-47.57,18.12-101.48-5.01-147.59Z"/>
    <path class="cls-5" d="M926.43,660.63h0s0,0,0,0c47.57,19.95,101.48,18.12,147.59-5.01h0s0,0,0,0c-19.95,47.57-18.12,101.48,5.01,147.59h0s0,0,0,0c-47.57-19.95-101.48-18.12-147.59,5.01h0s0,0,0,0c19.95-47.57,18.12-101.48-5.01-147.59Z"/>
  </g>
</svg>