<?xml version="1.0" encoding="UTF-8"?>
<svg xmlns="http://www.w3.org/2000/svg" viewBox="0 0 1738.67 1160">
  <defs>
    <style>
      .cls-1 {
        fill: #e53d38;
      }

      .cls-2 {
        stroke: #0b3251;
      }

      .cls-2, .cls-3, .cls-4, .cls-5 {
        fill: none;
        stroke-miterlimit: 10;
        stroke-width: 1.8px;
      }

      .cls-6 {
        fill: #fff;
      }

      .cls-3 {
        stroke: #e53d38;
      }

      .cls-4 {
        stroke: #d4e4ec;
      }

      .cls-5 {
        stroke: #4b7f9b;
      }
    </style>
  </defs>
  <g id="BG">
    <rect class="cls-6" y="-2.42" width="1738.67" height="1160"/>
  </g>
  <g id="Layer_1" data-name="Layer 1">
    <g>
      <g>
        <line class="cls-3" x1="1043.53" y1="933.06" x2="1043.53" y2="1007.54"/>
        <line class="cls-3" x1="1064.25" y1="915.46" x2="1064.25" y2="989.93"/>
        <line class="cls-3" x1="1089.32" y1="932.94" x2="1089.32" y2="1007.41"/>
        <line class="cls-3" x1="1108.97" y1="915.1" x2="1108.97" y2="989.57"/>
        <line class="cls-3" x1="1132.3" y1="933.06" x2="1132.3" y2="1007.54"/>
        <line class="cls-3" x1="1150.75" y1="913.9" x2="1150.75" y2="988.37"/>
        <line class="cls-3" x1="1174.82" y1="933.06" x2="1174.82" y2="1007.54"/>
        <line class="cls-3" x1="1194.87" y1="913.9" x2="1194.87" y2="988.37"/>
        <line class="cls-3" x1="1218.14" y1="933.06" x2="1218.14" y2="1003.39"/>
        <line class="cls-3" x1="1236.59" y1="913.9" x2="1236.59" y2="988.37"/>
        <line class="cls-3" x1="1266.27" y1="923.48" x2="1266.27" y2="997.95"/>
        <line class="cls-3" x1="1286.32" y1="913.9" x2="1286.32" y2="988.37"/>
        <line class="cls-3" x1="1305.58" y1="933.06" x2="1305.58" y2="1001.75"/>
        <line class="cls-3" x1="1324.83" y1="913.9" x2="1324.83" y2="988.37"/>
        <line class="cls-3" x1="1347.29" y1="923.48" x2="1347.29" y2="997.95"/>
        <line class="cls-3" x1="1370.55" y1="913.9" x2="1370.55" y2="988.37"/>
        <line class="cls-3" x1="1400.15" y1="923.48" x2="1400.15" y2="997.95"/>
        <polyline class="cls-3" points="1026.41 913.9 1043.53 933.06 1063.85 913.9 1089.52 933.06 1108.77 913.9 1132.3 933.06 1149.42 913.9 1174.02 933.06 1193.27 913.9 1220.01 933.06 1237.12 913.9 1268.14 923.48 1284.19 913.9 1305.58 933.06 1323.76 913.9 1348.36 923.48 1368.68 913.9 1400.15 923.48 1427.51 913.9 1427.51 988.37 1400.15 997.95 1368.68 988.37 1348.36 997.95 1323.76 988.37 1305.58 1001.75 1284.19 988.37 1268.14 997.95 1237.12 988.37 1218.14 1003.39 1193.27 988.37 1174.02 1007.54 1149.42 988.37 1132.3 1007.54 1108.77 988.37 1089.52 1007.54 1063.85 988.37 1043.53 1007.54 1026.41 988.37"/>
        <polyline class="cls-3" points="1415.89 885.15 1391.32 895.71 1359.86 886.13 1339.54 895.71 1314.94 886.13 1296.75 905.3 1275.36 886.13 1259.32 895.71 1228.3 886.13 1211.19 905.3 1184.45 886.13 1165.19 905.3 1140.59 886.13 1123.48 905.3 1099.95 886.13 1080.7 905.3 1062.45 891.67"/>
        <g>
          <line class="cls-3" x1="1454.38" y1="931.95" x2="1454.38" y2="1006.43"/>
          <line class="cls-3" x1="1474.04" y1="914.12" x2="1474.04" y2="988.59"/>
          <line class="cls-3" x1="1497.37" y1="932.08" x2="1497.37" y2="1006.55"/>
          <line class="cls-3" x1="1515.82" y1="912.92" x2="1515.82" y2="987.39"/>
          <line class="cls-3" x1="1539.88" y1="932.08" x2="1539.88" y2="1006.55"/>
          <line class="cls-3" x1="1559.94" y1="912.92" x2="1559.94" y2="987.39"/>
          <line class="cls-3" x1="1583.2" y1="932.08" x2="1583.2" y2="1006.55"/>
          <line class="cls-3" x1="1601.65" y1="912.92" x2="1601.65" y2="987.39"/>
          <polyline class="cls-3" points="1631.5 996.44 1602.19 987.39 1585.07 1006.55 1558.33 987.39 1539.08 1006.55 1514.48 987.39 1497.37 1006.55 1473.84 987.39 1454.58 1006.55 1428.91 987.39"/>
          <line class="cls-3" x1="1633.21" y1="996.97" x2="1631.5" y2="996.44"/>
          <polyline class="cls-3" points="1428.35 913.45 1428.91 912.92 1454.58 932.08 1473.84 912.92 1497.37 932.08 1514.48 912.92 1539.08 932.08 1558.33 912.92 1585.07 932.08 1602.19 912.92 1633.21 922.5"/>
          <polyline class="cls-3" points="1624.38 894.73 1593.36 885.15 1576.25 904.32 1549.51 885.15 1530.26 904.32 1505.66 885.15 1488.54 904.32 1465.01 885.15 1445.76 904.32 1415.89 885.15"/>
        </g>
      </g>
      <g>
        <polyline class="cls-5" points="1021.73 902.04 1021.73 878.33 1039.78 869.11 1039.78 836.15 1054.62 827.8 1054.62 791.23 1070.67 784.81 1070.67 745.91 1090.32 739.89 1088.32 701.78 1104.36 696.57 1103.16 665.28 1118.8 660.47 1117.6 626.78 1135.25 621.97 1134.84 587.47 1152.09 587.47 1150.89 547.76 1164.53 547.76 1162.52 513.67 1180.97 509.66 1180.17 479.58 1202.36 488.02"/>
        <polyline class="cls-5" points="1062.45 891.67 1062.45 862.34 1077.29 853.98 1077.29 817.41 1093.33 811 1093.33 772.09 1112.98 766.07 1110.98 727.97 1127.02 722.76 1125.82 691.47 1141.46 686.66 1140.26 652.96 1157.91 648.15 1157.51 613.66 1174.75 613.66 1173.55 573.95 1187.19 573.95 1185.18 539.86 1203.63 535.84 1202.36 488.02"/>
        <polyline class="cls-5" points="940.11 866.97 940.11 839.36 958.16 830.13 958.16 797.18 973 788.82 973 752.25 989.05 745.84 989.05 706.93 1008.7 700.91 1006.69 662.81 1022.74 657.59 1021.53 626.31 1037.18 621.5 1035.97 587.8 1053.62 582.99 1053.22 548.5 1070.47 548.5 1069.26 508.79 1082.9 508.79 1080.9 474.69 1099.35 470.68 1098.54 440.6"/>
        <line class="cls-5" x1="940.11" y1="839.36" x2="1021.73" y2="878.33"/>
        <line class="cls-5" x1="958.34" y1="797" x2="1039.96" y2="835.97"/>
        <line class="cls-5" x1="973.76" y1="754.64" x2="1055.38" y2="793.61"/>
        <line class="cls-5" x1="989.43" y1="708.02" x2="1071.05" y2="746.99"/>
        <line class="cls-5" x1="1007.43" y1="664.81" x2="1089.05" y2="703.78"/>
        <line class="cls-5" x1="1023.01" y1="657.18" x2="1104.63" y2="696.16"/>
        <line class="cls-5" x1="1023.01" y1="625.83" x2="1104.63" y2="664.81"/>
        <line class="cls-5" x1="1036.67" y1="586.85" x2="1118.3" y2="625.83"/>
        <line class="cls-5" x1="1053.32" y1="581.23" x2="1134.94" y2="620.2"/>
        <line class="cls-5" x1="1053.32" y1="550.09" x2="1134.94" y2="589.06"/>
        <line class="cls-5" x1="1069.41" y1="547.88" x2="1151.03" y2="586.85"/>
        <line class="cls-5" x1="1069.41" y1="511.11" x2="1151.03" y2="550.09"/>
        <line class="cls-5" x1="1082.8" y1="507.08" x2="1164.42" y2="546.06"/>
        <line class="cls-5" x1="1082.8" y1="475.59" x2="1164.42" y2="514.56"/>
        <line class="cls-5" x1="1098.42" y1="468.53" x2="1180.05" y2="507.51"/>
        <line class="cls-5" x1="1098.42" y1="440.6" x2="1180.05" y2="479.58"/>
        <line class="cls-5" x1="1036.67" y1="614.9" x2="1118.3" y2="653.88"/>
        <line class="cls-5" x1="1008.64" y1="699.46" x2="1090.26" y2="738.43"/>
        <line class="cls-5" x1="989.43" y1="745.38" x2="1071.05" y2="784.36"/>
        <line class="cls-5" x1="973.76" y1="788.82" x2="1055.38" y2="827.8"/>
        <line class="cls-5" x1="958.34" y1="830.13" x2="1039.96" y2="869.11"/>
      </g>
      <g>
        <g>
          <g>
            <polyline class="cls-2" points="643.38 407.17 631.61 444.25 602.96 439.64 591.22 482.23 571.32 475.21 555.99 524.23 530.83 515.35 516.57 557.6 488.75 554.38 476.01 596.07 451.12 593.88 439.41 632.63 413.76 630.73 400.29 678.21 369.03 675.42 352.29 722.84 326.12 722.4 310.38 766.97 285.14 769.52 270.96 809.69"/>
            <polyline class="cls-2" points="666.16 447.65 653.41 487.84 624.76 483.23 613.02 525.82 593.12 518.8 577.79 567.82 552.63 558.94 538.37 601.19 510.55 597.97 497.81 639.66 472.91 637.47 461.21 676.22 435.56 674.32 422.09 721.79 390.82 719.01 374.08 766.43 347.92 765.99 332.18 810.56 306.93 813.11 294.31 848.86"/>
            <polyline class="cls-2" points="182.82 679.97 208.07 677.43 223.8 632.86 249.97 633.3 266.71 585.87 297.98 588.66 311.44 541.18 337.1 543.09 348.8 504.33 373.7 506.52 386.44 464.83 414.26 468.05 428.51 425.8 453.68 434.68 469.01 385.66 488.9 392.68 500.65 350.09 529.29 354.71 541.07 317.62"/>
            <line class="cls-2" x1="183.16" y1="679.85" x2="285.48" y2="769.39"/>
            <line class="cls-2" x1="223.88" y1="636.15" x2="326.19" y2="725.7"/>
            <line class="cls-2" x1="266.8" y1="587.39" x2="369.12" y2="676.94"/>
            <line class="cls-2" x1="311.66" y1="543.99" x2="413.98" y2="633.54"/>
            <line class="cls-2" x1="337.67" y1="542.72" x2="439.99" y2="632.27"/>
            <line class="cls-2" x1="351.16" y1="504.51" x2="453.48" y2="594.05"/>
            <line class="cls-2" x1="387.87" y1="464.03" x2="490.18" y2="553.58"/>
            <line class="cls-2" x1="414.57" y1="465.75" x2="516.89" y2="555.3"/>
            <line class="cls-2" x1="427.97" y1="427.79" x2="530.29" y2="517.34"/>
            <line class="cls-2" x1="452.39" y1="433.38" x2="554.71" y2="522.93"/>
            <line class="cls-2" x1="468.21" y1="388.57" x2="570.53" y2="478.11"/>
            <line class="cls-2" x1="489.49" y1="390.55" x2="591.8" y2="480.1"/>
            <line class="cls-2" x1="503.04" y1="352.16" x2="605.35" y2="441.71"/>
            <line class="cls-2" x1="528.87" y1="351.61" x2="631.19" y2="441.16"/>
            <line class="cls-2" x1="540.89" y1="317.56" x2="643.21" y2="407.11"/>
            <line class="cls-2" x1="375.8" y1="498.22" x2="478.11" y2="587.77"/>
            <line class="cls-2" x1="298.51" y1="586.85" x2="400.83" y2="676.4"/>
            <line class="cls-2" x1="250.73" y1="632.94" x2="353.04" y2="722.49"/>
            <line class="cls-2" x1="209.17" y1="677.82" x2="311.48" y2="767.36"/>
            <line class="cls-2" x1="169.27" y1="723.06" x2="271.22" y2="809.78"/>
          </g>
          <g>
            <polyline class="cls-2" points="643.51 405.26 668.76 402.72 684.49 358.14 710.66 358.58 727.4 311.16 758.66 313.95 772.13 266.47 797.78 268.37 809.49 229.62 834.38 231.81 847.12 190.12 874.94 193.34 889.2 151.09 914.36 159.97 929.69 110.95 949.59 117.97 961.33 75.38 989.98 79.99 1001.75 42.91 1030.49 64.63"/>
            <polyline class="cls-2" points="665.31 448.85 690.55 446.3 706.29 401.73 732.46 402.17 749.2 354.75 780.46 357.53 793.93 310.06 819.58 311.96 831.29 273.21 856.18 275.4 868.92 233.71 896.74 236.93 911 194.68 936.16 203.56 951.49 154.54 971.39 161.56 983.13 118.97 1011.78 123.58 1030.49 64.63"/>
            <polyline class="cls-2" points="695.47 178.83 707.17 140.07 732.07 142.26 744.81 100.57 772.63 103.79 786.88 61.54 812.05 70.42 827.38 21.4 847.27 28.42 859.02 -14.17 887.66 -9.55 899.44 -46.64"/>
            <polyline class="cls-2" points="541.19 315.71 566.44 313.17 582.17 268.6 608.34 269.04 625.08 221.61 656.35 224.4 669.82 176.92 696.59 178.94"/>
            <line class="cls-2" x1="582.25" y1="271.89" x2="684.56" y2="361.44"/>
            <line class="cls-2" x1="625.18" y1="223.13" x2="727.49" y2="312.68"/>
            <line class="cls-2" x1="670.03" y1="179.73" x2="772.35" y2="269.28"/>
            <line class="cls-2" x1="696.04" y1="178.46" x2="798.36" y2="268.01"/>
            <line class="cls-2" x1="709.53" y1="140.25" x2="811.85" y2="229.79"/>
            <line class="cls-2" x1="746.24" y1="99.77" x2="848.55" y2="189.32"/>
            <line class="cls-2" x1="772.94" y1="101.49" x2="875.26" y2="191.04"/>
            <line class="cls-2" x1="786.34" y1="63.53" x2="888.66" y2="153.08"/>
            <line class="cls-2" x1="810.77" y1="69.12" x2="913.08" y2="158.67"/>
            <line class="cls-2" x1="826.58" y1="24.31" x2="928.9" y2="113.85"/>
            <line class="cls-2" x1="847.86" y1="26.29" x2="950.17" y2="115.84"/>
            <line class="cls-2" x1="861.41" y1="-12.1" x2="963.72" y2="77.45"/>
            <line class="cls-2" x1="887.24" y1="-12.65" x2="989.56" y2="76.9"/>
            <line class="cls-2" x1="899.26" y1="-46.7" x2="1001.58" y2="42.85"/>
            <line class="cls-2" x1="734.17" y1="133.96" x2="836.49" y2="223.51"/>
            <line class="cls-2" x1="656.88" y1="222.59" x2="759.2" y2="312.14"/>
            <line class="cls-2" x1="609.1" y1="268.68" x2="711.41" y2="358.23"/>
            <line class="cls-2" x1="567.54" y1="313.56" x2="669.86" y2="403.1"/>
          </g>
        </g>
        <g>
          <polyline class="cls-2" points=".91 1066.71 9 1043.78 40.27 1046.56 53.74 999.08 79.39 1000.99 91.09 962.24 115.99 964.43 128.73 922.74 156.55 925.96 170.8 883.71 195.97 892.59 210.5 846.47 231.19 850.59 242.94 808 270.96 809.69"/>
          <polyline class="cls-2" points=".93 1134.57 14.06 1134.79 30.8 1087.36 62.06 1090.15 75.53 1042.67 101.18 1044.58 112.89 1005.83 137.78 1008.01 150.52 966.33 178.34 969.55 192.6 927.29 217.76 936.18 233.09 887.15 252.99 894.18 264.74 851.59 294.31 848.86"/>
          <polyline class="cls-2" points=".61 873.73 13.67 874.88 26.41 833.19 54.23 836.41 68.49 794.16 93.65 803.04 108.98 754.02 128.88 761.04 140.62 718.45 169.27 723.06 182.82 679.97"/>
          <line class="cls-2" x1=".91" y1="1038.13" x2="9.1" y2="1045.3"/>
          <line class="cls-2" x1=".61" y1="955.21" x2="53.95" y2="1001.9"/>
          <line class="cls-2" x1=".91" y1="931.43" x2="79.96" y2="1000.63"/>
          <line class="cls-2" x1=".91" y1="881.42" x2="93.45" y2="962.41"/>
          <line class="cls-2" x1="27.84" y1="832.39" x2="130.16" y2="921.94"/>
          <line class="cls-2" x1="54.55" y1="834.11" x2="156.86" y2="923.66"/>
          <line class="cls-2" x1="67.95" y1="796.15" x2="170.26" y2="885.7"/>
          <line class="cls-2" x1="92.37" y1="801.74" x2="194.69" y2="891.29"/>
          <line class="cls-2" x1="108.19" y1="756.92" x2="210.5" y2="846.47"/>
          <line class="cls-2" x1="129.46" y1="758.91" x2="231.78" y2="848.46"/>
          <line class="cls-2" x1="140.62" y1="718.45" x2="242.94" y2="808"/>
          <line class="cls-2" x1="15.77" y1="866.58" x2="118.09" y2="956.13"/>
          <line class="cls-2" x1=".91" y1="1009.84" x2="40.8" y2="1044.76"/>
        </g>
      </g>
      <g>
        <g>
          <polyline class="cls-4" points="719.87 511.35 705.65 499.84 713.1 487.22 696.43 474.83 703.3 466.68 684.46 451.57 683.77 446.99"/>
          <polyline class="cls-4" points="697.61 515.42 682.2 502.95 689.65 490.32 672.98 477.93 679.86 469.78 664.89 457.78"/>
          <polyline class="cls-4" points="736.13 394.53 752.17 408.04 743.48 418.34 762.33 433.45 755.46 441.6 772.13 453.99 764.67 466.61 778.9 478.12"/>
          <line class="cls-4" x1="751.39" y1="407.46" x2="692.37" y2="440.69"/>
          <line class="cls-4" x1="744.3" y1="417.95" x2="685.28" y2="451.19"/>
          <line class="cls-4" x1="761.19" y1="432.61" x2="702.16" y2="465.84"/>
          <line class="cls-4" x1="756.29" y1="442.21" x2="697.27" y2="475.45"/>
          <line class="cls-4" x1="770.76" y1="454.77" x2="711.73" y2="488"/>
          <line class="cls-4" x1="766.13" y1="466.91" x2="707.1" y2="500.15"/>
          <line class="cls-4" x1="778.96" y1="478.05" x2="719.93" y2="511.28"/>
        </g>
        <g>
          <polyline class="cls-4" points="720.69 511.72 717.05 523.92 733.85 538.49 728.71 550.64 746.58 566.14 739.44 580.28 757.96 594.27 752.27 605.94 767.24 617.69 761.57 628.95 777.66 641.66 770.97 654.12 787.02 667.63 778.33 677.94 797.18 693.04 790.3 701.19 806.97 713.58 799.52 726.2 813.74 737.71 798.68 747.61"/>
          <polyline class="cls-4" points="697.25 514.82 693.61 527.02 710.4 541.6 705.27 553.74 723.14 569.25 716 583.39 734.51 597.38 728.82 609.04 743.8 620.79 738.13 632.05 754.21 644.76 747.53 657.23 763.57 670.73 754.89 681.04 773.73 696.15 766.86 704.29 783.53 716.68 776.08 729.31 798.68 747.61"/>
          <polyline class="cls-4" points="811.3 572.7 826.27 584.45 820.6 595.72 836.68 608.43 830 620.89 846.05 634.4 837.36 644.7 856.2 659.81 849.33 667.96 866 680.35 858.55 692.97 872.77 704.48"/>
          <polyline class="cls-4" points="779.72 478.49 776.08 490.69 792.88 505.26 787.74 517.4 805.61 532.91 798.47 547.05 816.98 561.04 811.03 573.21"/>
          <line class="cls-4" x1="791.4" y1="504.76" x2="732.37" y2="537.99"/>
          <line class="cls-4" x1="804.92" y1="532.71" x2="745.89" y2="565.94"/>
          <line class="cls-4" x1="815.7" y1="560.68" x2="756.67" y2="593.92"/>
          <line class="cls-4" x1="811.35" y1="573.03" x2="752.32" y2="606.26"/>
          <line class="cls-4" x1="825.75" y1="585.53" x2="766.72" y2="618.76"/>
          <line class="cls-4" x1="836.77" y1="609.22" x2="777.74" y2="642.46"/>
          <line class="cls-4" x1="830.96" y1="621.41" x2="771.94" y2="654.64"/>
          <line class="cls-4" x1="845.27" y1="633.82" x2="786.24" y2="667.05"/>
          <line class="cls-4" x1="838.18" y1="644.32" x2="779.15" y2="677.55"/>
          <line class="cls-4" x1="855.06" y1="658.97" x2="796.04" y2="692.2"/>
          <line class="cls-4" x1="850.17" y1="668.58" x2="791.14" y2="701.81"/>
          <line class="cls-4" x1="864.63" y1="681.13" x2="805.61" y2="714.36"/>
          <line class="cls-4" x1="860" y1="693.28" x2="800.97" y2="726.51"/>
          <line class="cls-4" x1="872.83" y1="704.41" x2="813.8" y2="737.64"/>
          <line class="cls-4" x1="823.88" y1="598.04" x2="764.86" y2="631.28"/>
          <line class="cls-4" x1="799.17" y1="547.59" x2="740.14" y2="580.83"/>
          <line class="cls-4" x1="787.75" y1="517.81" x2="728.73" y2="551.05"/>
          <line class="cls-4" x1="775.7" y1="491.14" x2="716.67" y2="524.37"/>
        </g>
      </g>
      <g>
        <polyline class="cls-4" points="973.76 754.64 882.26 697.84 684.75 812.92 670.04 821.78"/>
        <line class="cls-4" x1="1026.41" y1="988.37" x2="1017.12" y2="1127.57"/>
        <polyline class="cls-4" points="731.27 896.78 826.74 831.41 866.04 859.28 843.18 878.33 959.5 970.17 1026.41 913.9"/>
        <polyline class="cls-4" points="843.18 878.33 843.18 915.46 843.18 924.13 843.18 939.37 864.51 957.82 864.51 975.06 882.26 989.93 882.26 1012.37 902.21 1028.41 902.21 1048.47 957.56 1087.37 983.63 1062.5 983.63 1083.36 1009.3 1099 1009.3 1121.87 1028.55 1135.9 1028.55 1152.75 1043.53 1157.3"/>
        <polyline class="cls-4" points="959.5 970.17 957.56 1087.37 902.21 1141.45 852.07 1093.39 852.07 1072.93 830.81 1054.48 830.41 1034.03 810.76 1017.18 809.55 999.53 788.9 981.48 788.1 962.83 767.84 945.38 767.84 924.93 845.65 867.37 827.2 852.73 722.52 930.14"/>
        <polyline class="cls-4" points="890.38 1157.3 834.73 1107.83 834.73 1087.37 813.47 1068.92 813.07 1048.47 793.41 1031.62 792.21 1013.97 771.55 995.92 770.75 977.27 750.5 959.82 750.5 935.96 731.27 924.93"/>
        <polyline class="cls-4" points="1062.45 891.67 1055.03 886.13 1034.7 905.3 1026.41 913.9"/>
        <line class="cls-4" x1="843.18" y1="890.23" x2="767.84" y2="945.38"/>
        <line class="cls-4" x1="788.1" y1="962.83" x2="843.18" y2="924.13"/>
        <line class="cls-4" x1="788.9" y1="981.48" x2="843.18" y2="939.37"/>
        <line class="cls-4" x1="809.94" y1="999.63" x2="864.51" y2="957.82"/>
        <line class="cls-4" x1="809.94" y1="1016.89" x2="864.51" y2="975.08"/>
        <line class="cls-4" x1="830.12" y1="1033.38" x2="882.26" y2="989.93"/>
        <line class="cls-4" x1="830.12" y1="1055.11" x2="882.26" y2="1011.66"/>
        <line class="cls-4" x1="850.33" y1="1072.51" x2="902.47" y2="1029.06"/>
        <line class="cls-4" x1="851.66" y1="1092.84" x2="903.81" y2="1049.38"/>
        <line class="cls-4" x1="767.84" y1="924.93" x2="748.17" y2="911.17"/>
        <line class="cls-4" x1="906.22" y1="1157.3" x2="983.63" y2="1083.36"/>
        <line class="cls-4" x1="947.72" y1="1157.3" x2="1008.32" y2="1099.42"/>
        <line class="cls-4" x1="969.61" y1="1157.3" x2="1008.32" y2="1120.33"/>
        <line class="cls-4" x1="1006.83" y1="1157.3" x2="1028.72" y2="1136.39"/>
      </g>
      <g>
        <polyline class="cls-3" points="670.04 821.78 658.27 811.62 646.24 818.04 629.93 804.4 615.76 811.89 601.59 798.25 589.55 805.74 570.03 790.49 559.07 796.11 538.21 781.94 522.97 790.23 504.52 774.72 489.01 780.87 470.29 765.36 449.03 772.04 507.06 827.8"/>
        <polyline class="cls-3" points="449.03 772.04 428.49 759.59 413.25 767.88 394.8 752.37 379.29 758.52 360.11 824.85"/>
        <polyline class="cls-3" points="464.55 821.78 475.37 846.65 507.06 827.8 514.68 855.07 546.37 838.42 551.58 862.29 580.46 842.03 588.48 869.51 615.76 851.06 622.18 875.13 646.64 856.27 651.46 879.54 677.53 863.09 682.34 885.15 706.47 869.11 711.22 891.97 731.27 874.32 731.27 896.78"/>
        <polyline class="cls-3" points="722.52 930.14 720.11 907.68 694.44 925.93 691.63 902.47 666.36 919.91 663.15 896.9 634.68 915.46 632.67 892.04 605.33 906.68 599.98 886.13 572.71 906.68 566.82 886.13 536.34 896.9 529.92 878.33 499.44 895.98 492.49 863.89 456.12 886.13 449.03 863.89 422.17 867.49 413.25 851.06 387.34 863.09 374.51 842.97 349.28 856.27 333.76 836.75 301.47 828.6"/>
        <line class="cls-3" x1="489.01" y1="780.87" x2="546.37" y2="838.42"/>
        <line class="cls-3" x1="522.97" y1="790.23" x2="580.46" y2="842.03"/>
        <line class="cls-3" x1="559.07" y1="796.11" x2="615.76" y2="851.06"/>
        <line class="cls-3" x1="589.55" y1="805.74" x2="646.64" y2="856.27"/>
        <line class="cls-3" x1="615.76" y1="811.89" x2="677.53" y2="863.09"/>
        <line class="cls-3" x1="629.93" y1="804.4" x2="706.47" y2="869.11"/>
        <line class="cls-3" x1="670.07" y1="821.75" x2="658.27" y2="811.62"/>
        <line class="cls-3" x1="731.27" y1="874.32" x2="670.07" y2="821.75"/>
        <polyline class="cls-3" points="428.49 759.59 464.55 821.78 436.32 840.5 431.1 816.63 399.41 833.28 391.79 806 360.11 824.85 349.28 799.99 333.76 806"/>
        <line class="cls-3" x1="413.25" y1="767.88" x2="431.1" y2="816.63"/>
        <line class="cls-3" x1="394.8" y1="752.37" x2="391.79" y2="806"/>
        <line class="cls-3" x1="349.28" y1="799.99" x2="363.54" y2="767.36"/>
      </g>
      <g>
        <polyline class="cls-4" points="1098.42 468.53 1077.48 460.09 1077.48 411.1 1053.32 404.64"/>
        <g>
          <polyline class="cls-4" points="1053.32 362.34 1118.3 376.34 1118.3 405.13 1180.05 427.79 1180.05 457.78 1236.59 475.59 1236.59 514.56 1266.27 517.34 1266.27 555.3 1305.58 565.55 1305.58 609.32 1347.29 614.9 1347.29 653.78 1400.15 653.78 1400.15 683.98 1429.32 684.29 1429.32 708.02 1739.57 717.4"/>
          <polyline class="cls-4" points="1739.57 647.65 1548.01 642.67 1548.01 618.95 1518.84 611.32 1518.84 588.44 1465.99 588.44 1465.99 549.56 1424.27 543.98 1424.27 500.2 1384.96 489.95 1384.96 452 1355.28 449.22 1355.28 410.25 1298.74 392.44 1298.74 362.45 1236.99 339.79 1236.99 311 1172.01 296.99"/>
          <line class="cls-4" x1="1118.3" y1="376.34" x2="1236.99" y2="311"/>
          <polyline class="cls-4" points="1172.01 296.99 1053.32 362.34 1053.32 404.64"/>
          <line class="cls-4" x1="1118.3" y1="405.13" x2="1236.58" y2="338.6"/>
          <line class="cls-4" x1="1177.44" y1="427.54" x2="1295.72" y2="361.01"/>
          <polyline class="cls-4" points="1203.63 535.84 1224.3 544.92 1224.3 581.23 1272.96 600.72 1272.96 634.39 1324.5 645.32 1324.5 676.67 1379.39 695.21 1379.39 745.38 1744.12 757.84"/>
          <line class="cls-4" x1="1548.01" y1="642.67" x2="1429.32" y2="708.02"/>
          <line class="cls-4" x1="1548.01" y1="618.95" x2="1429.32" y2="684.29"/>
          <line class="cls-4" x1="1518.84" y1="611.32" x2="1400.15" y2="683.98"/>
          <line class="cls-4" x1="1518.84" y1="588.44" x2="1400.15" y2="653.78"/>
          <line class="cls-4" x1="1347.29" y1="653.78" x2="1465.99" y2="588.44"/>
          <line class="cls-4" x1="1465.99" y1="549.56" x2="1347.29" y2="614.9"/>
          <line class="cls-4" x1="1424.27" y1="543.98" x2="1305.58" y2="609.32"/>
          <line class="cls-4" x1="1180.05" y1="457.78" x2="1298.74" y2="392.44"/>
          <line class="cls-4" x1="1355.28" y1="410.25" x2="1236.59" y2="475.59"/>
          <line class="cls-4" x1="1355.28" y1="449.22" x2="1236.59" y2="514.56"/>
          <line class="cls-4" x1="1384.96" y1="452" x2="1266.27" y2="517.34"/>
          <line class="cls-4" x1="1384.96" y1="489.95" x2="1266.27" y2="555.3"/>
          <line class="cls-4" x1="1424.27" y1="500.2" x2="1305.58" y2="565.55"/>
        </g>
      </g>
      <g>
        <polyline class="cls-3" points="696.59 178.94 665.36 166.57 633.24 175.98 594.36 158.37 561.68 165.35 522.23 147.74 477.42 155.33 599.72 218.64"/>
        <polyline class="cls-3" points="477.42 155.33 434.14 141.19 402.02 150.61 363.14 133 330.45 139.98 290.03 215.3"/>
        <polyline class="cls-3" points="510.12 211.81 532.94 240.05 599.72 218.64 615.78 249.61"/>
        <line class="cls-3" x1="561.68" y1="165.35" x2="658.28" y2="217.59"/>
        <line class="cls-3" x1="633.24" y1="175.98" x2="666.38" y2="192.07"/>
        <line class="cls-3" x1="867.49" y1="238.4" x2="893.86" y2="250.98"/>
        <line class="cls-3" x1="898.5" y1="231.72" x2="958.94" y2="258.72"/>
        <line class="cls-3" x1="904.78" y1="213.09" x2="1019.93" y2="265.55"/>
        <polyline class="cls-3" points="434.14 141.19 510.12 211.81 450.63 233.06 439.64 205.96 372.87 224.86 356.81 193.89 290.03 215.3 267.21 187.06 234.51 193.89 219.88 168.54 280.74 126.08 297.28 133"/>
        <line class="cls-3" x1="402.02" y1="150.61" x2="439.64" y2="205.96"/>
        <line class="cls-3" x1="363.14" y1="133" x2="356.81" y2="193.89"/>
        <polyline class="cls-3" points="330.45 139.98 297.28 133 267.21 187.06"/>
        <path class="cls-3" d="M280.74,126.08s-31-27.78-13.53-52.07H122.96l-1.69,32.19-6.2,62.34,51.39,11.03v39.97l68.06,9.26,32.7,22.17,53.17-15.11,27.05,22.85,54.59-13.66,18.81,18.65,56.59-4.08,14.95,25.25,76.64-25.25,8.7,21.63"/>
        <path class="cls-3" d="M219.88,168.54l-36.63-12.55s-52.97-21.56-60.29-81.98"/>
        <line class="cls-3" x1="272.77" y1="117.23" x2="163.03" y2="143.68"/>
        <line class="cls-3" x1="263.48" y1="100.08" x2="129.58" y2="100.08"/>
        <polyline class="cls-3" points="1072.21 271.47 945.44 217.89 924.27 221.97"/>
        <polyline class="cls-3" points="1072.21 296.98 1072.21 271.47 1029.94 291.51 1019.93 265.55 969.09 283.77 958.94 258.72 904 277.39 893.86 250.98 858.64 265.6"/>
        <polyline class="cls-3" points="1072.21 296.98 1048.68 309.35 994.58 330.07 988.67 303.43 935.42 323.24 928.66 297.11 868.64 318.18 864.42 291.59 822.04 303.82"/>
      </g>
      <polyline class="cls-3" points="1631.33 996.97 1631.33 922.5 1624.38 894.73"/>
      <ellipse class="cls-1" cx="861.29" cy="758.37" rx="2.74" ry="3.02"/>
      <path class="cls-1" d="M857.83,776.38l1.08-7.02s-2.55-7.35,2.37-7.47c5.25-.13,3.3,7.62,3.3,7.62l.83,6.86"/>
      <path class="cls-1" d="M859.23,774.9s.08,12.67,1.19,12.78,1.28-14.06,1.28-14.06"/>
      <path class="cls-1" d="M861.59,774.9s.08,12.67,1.19,12.78,1.28-14.06,1.28-14.06"/>
      <path class="cls-1" d="M861.99,762.05s2.75.39,3.09,2.32,3.34,10.72,2.53,10.85-3.68-8.67-3.68-8.67"/>
    </g>
  </g>
</svg>