<?xml version="1.0" encoding="UTF-8"?>
<svg id="Layer_1" data-name="Layer 1" xmlns="http://www.w3.org/2000/svg" viewBox="0 0 59.55 60.23">
  <defs>
    <style>
      .cls-1 {
        fill: #0b3251;
      }
    </style>
  </defs>
  <path class="cls-1" d="M6.67,30.9c6.87-7.89,13.99-15.54,21.22-23.1,6.71,6.16,13.58,12.72,20.1,19.07,0,0,3.54,3.4,3.54,3.4-9.72-.56-19.96-1.6-29.48.86-4.51,1.37-5.03,3.5-2.06,7.08,3.62,4.21,8.66,13.21-1.1,12.61-1.23-.1-2.43-.36-3.6-.7,2.37.15,8.59.53,7.57-3.25-1.03-3.34-4.04-5.72-6.09-8.48-6.57-9.69,8.83-11.93,15.39-12.17,4.93-.26,9.79-.23,14.72.15l-1.41,3.08c-4.5-4.46-9.48-9.42-13.92-13.99-1.55-1.56-3.04-3.16-4.57-4.74,0,0,1.93,0,1.93,0-7.29,6.87-14.65,13.66-22.24,20.2h0Z"/>
</svg>