<?xml version="1.0" encoding="UTF-8"?>
<svg id="Layer_1" data-name="Layer 1" xmlns="http://www.w3.org/2000/svg" viewBox="0 0 2604.98 2466.39">
  <defs>
    <style>
      .cls-1 {
        fill: #e53d38;
      }

      .cls-2 {
        fill: #4b7f9b;
      }

      .cls-3, .cls-4 {
        fill: #fff;
      }

      .cls-4 {
        stroke: #4b7f9b;
        stroke-miterlimit: 10;
        stroke-width: 3px;
      }

      .cls-5 {
        fill: none;
      }

      .cls-6 {
        fill: #709db7;
      }

      .cls-7 {
        fill: #0b3251;
      }
    </style>
  </defs>
  <path class="cls-7" d="M914.63,1883.52c-50.14-54.29-45.05-137.49-28.75-169.63,21.33-42.05,10.5-127.76-53.18-185.87-63.68-58.11-24.87-242.37-4.46-353.45,20.39-111.08,156.16-173.65,156.16-173.65,0,0,20.44-103.08,315.42-168.44,187.5-41.56,315.11,28.54,445.28,75.4,130.19,46.88,259.06-34.97,387.29,15.92,128.23,50.87,86.34,223.19,252.64,241.67,166.3,18.48,152.87,169.11,157.03,225.95,5.4,73.44,47.01,73.58,10.79,177.56-54.73,157.14-165.08,75.72-256.99,96.12-91.92,20.41-21.93,117.06-141.32,195.68-119.38,78.64-332.67,66.25-408.49,94.93-75.81,28.68-62.79,90.74-173.7,113.98-110.93,23.24-125.95,6.07-204.53,13.15-78.28,7.08-149.11,133.95-266.65,95.86l-186.57-295.17Z"/>
  <path class="cls-3" d="M2255.61,1492.38s-123.72-349.71-310.97-323.15c0,0-63.26,14.57-115.49,80.28-48.45,9.91-105.56,20.78-154.64,2.53-3.57-27.34-33.89-196.15-96.73-167.47-22.87,11.87-28.77,33.33-19.51,72.04-18.24-1.34-40.31-5.21-96.36,21.59-56.04,26.8-230.5,153.73-351.34,47.81,30.94,41.53,46.51,33.44,12.99,158.86-11.4,27.99-3.53,124.66,27.31,146.02,9.5,8.04,40.2,31.34,78.85,35.96,14.92,3.69,68.56,24.37,68.56,24.37,0,0-182.5,190.09-261.7,228.78-79.2,38.69-121.95,63.51-121.95,63.51,0,0-278.38,159.02-101.9,277.72-104.18,79.07-184.92,140.42-184.92,140.42l-117.09,164.73,218.4-31s-1.5-40.52,36.69-62.77c38.18-22.25,430.6-249.67,430.6-249.67l350.77-5.73s781.62,59.41,873.28-65.37c-35.71-145.38-164.85-559.48-164.85-559.48Z"/>
  <path class="cls-6" d="M1160.69,1259.15c44.27,18.85,95.47,18.74,140.78,3.52,2.08-.75,7.73-2.83,9.88-3.62,2.13-.9,7.64-3.22,9.71-4.07,2.05-.96,7.42-3.5,9.53-4.49,7.32-3.71,14.45-7.77,21.45-12.05,2.01-1.29,6.82-4.44,8.86-5.75,3.47-2.32,8.04-5.75,11.51-8.14-3.71,2.88-7.39,5.82-11.18,8.6-2.01,1.42-6.76,4.72-8.68,6.07-9.73,6.45-20.23,12.27-30.78,17.32-2.04.91-7.62,3.31-9.74,4.22-2.18.82-7.83,2.94-9.94,3.72-45.43,15.73-97.66,15.56-141.41-5.33h0Z"/>
  <path class="cls-6" d="M1111.81,1227.73c33.39,41.53,63.47,98.7,58.33,153.41-.11,1.1-.37,3.31-.54,4.41-3.66,24.51-5.11,49.82.22,74.2,2.56,11.33,6.33,22.84,13.54,32.12-7.6-9.05-11.66-20.56-14.55-31.88-5.81-24.46-4.8-49.99-1.15-74.7.6-4.3.92-8.73,1.05-13.06.73-51.87-26.53-103.78-56.9-144.49h0Z"/>
  <g>
    <path class="cls-1" d="M2328.88,1676.95c13.87,3.27,27.58,7.15,41.39,10.64,13.8,3.51,27.7,6.71,41.76,8.96l-.08.46c-14.07-2.34-27.96-5.61-41.74-9.2-13.79-3.57-27.49-7.52-41.34-10.87Z"/>
    <path class="cls-1" d="M2433.22,1699.1c16.3,1.27,32.82.79,48.8-2.7l.17.78c-16.09,3.44-32.69,3.87-49.02,2.51l.05-.58Z"/>
    <path class="cls-1" d="M2552.59,1651.85c4.45-5.53,8.51-11.37,12.23-17.42l1.05.65c-3.77,6.07-7.89,11.93-12.39,17.49l-.89-.72Z"/>
    <path class="cls-1" d="M2585.74,1590.2c4.76-13.39,9-27,12.23-40.84,1.62-6.92,2.95-13.9,3.87-20.93.95-7.03,1.43-14.11,1.34-21.18l1.79-.02c.06,7.18-.46,14.34-1.45,21.43-.96,7.09-2.34,14.12-3.99,21.07-3.31,13.91-7.61,27.53-12.45,40.96l-1.35-.49Z"/>
    <path class="cls-1" d="M2600.89,1486.21c-1.64-7.96-4.2-15.71-7.04-23.37-2.84-7.66-5.87-15.3-8.46-23.11l1.95-.64c2.54,7.75,5.55,15.36,8.37,23.07,2.82,7.71,5.39,15.57,7.02,23.68l-1.84.38Z"/>
    <path class="cls-1" d="M2574.33,1355.05c-.37-7.1-.83-14.2-1.45-21.28l2.32-.2c.61,7.12,1.05,14.24,1.4,21.37l-2.27.11Z"/>
    <path class="cls-1" d="M2565.35,1285.42c-3.31-13.78-7.77-27.3-13.76-40.12-5.98-12.81-13.53-24.91-22.7-35.65l2.03-1.73c9.31,10.97,16.95,23.28,22.99,36.3,6.05,13.02,10.52,26.71,13.83,40.63l-2.38.57Z"/>
    <path class="cls-1" d="M2514,1194.63c-12.25-10.66-26.34-19.12-41.31-25.43l1.11-2.62c15.2,6.44,29.53,15.1,41.99,26l-1.79,2.05Z"/>
    <path class="cls-1" d="M2389.84,1150.34c-7-1.58-13.93-3.55-20.7-5.96l1.05-2.94c6.64,2.38,13.44,4.33,20.33,5.91l-.68,2.99Z"/>
    <path class="cls-1" d="M2325.79,1120.58c-11.3-8.95-21.21-19.56-29.82-31.05-8.63-11.5-15.99-23.84-22.75-36.43l3-1.61c6.7,12.51,13.98,24.7,22.44,36.03,8.44,11.33,18.12,21.74,29.15,30.52l-2.02,2.54Z"/>
    <path class="cls-1" d="M2263.44,1034.03c-7.29-14.7-14.24-29.53-21.84-43.98l3.07-1.61c7.64,14.55,14.59,29.41,21.85,44.08l-3.07,1.52Z"/>
    <path class="cls-1" d="M2191.45,922.26c-5.32-4.61-10.97-8.85-16.88-12.67l1.93-2.99c6.05,3.91,11.82,8.26,17.27,12.98l-2.32,2.67Z"/>
    <path class="cls-1" d="M2130.36,889.59c-13.49-4.24-27.36-7.25-41.38-9.17-14.03-1.92-28.2-2.75-42.38-2.78v-3.67c14.32.04,28.66.89,42.87,2.85,14.21,1.95,28.28,5.02,41.97,9.33l-1.08,3.43Z"/>
    <path class="cls-1" d="M2025.33,878.14c-16.31.77-32.58,2.36-48.83,4.25l-.43-3.7c16.3-1.88,32.66-3.46,49.09-4.23l.17,3.68Z"/>
    <path class="cls-1" d="M1891.56,892.44c-7.11.64-14.24,1.17-21.38,1.56l-.2-3.81c7.09-.38,14.17-.9,21.25-1.53l.34,3.79Z"/>
    <path class="cls-1" d="M1820.82,893.82c-14.29-1.03-28.55-2.99-42.55-6.17-7-1.59-13.94-3.46-20.78-5.64-3.43-1.08-6.82-2.25-10.19-3.48l-10.03-3.75,1.39-3.68,9.99,3.74c3.32,1.21,6.66,2.37,10.03,3.43,6.73,2.14,13.56,4,20.45,5.57,13.79,3.14,27.84,5.09,41.96,6.12l-.27,3.85Z"/>
    <polygon class="cls-1" points="1717.31 867.1 1671.62 848.92 1673.1 845.21 1718.75 863.42 1717.31 867.1"/>
    <polygon class="cls-1" points="1591.76 818.76 1571.5 812.09 1572.68 808.35 1593.03 815.04 1591.76 818.76"/>
    <path class="cls-1" d="M1524.31,798.85c-27.6-6.69-55.68-11.47-83.97-13.82l.31-3.79c28.51,2.35,56.79,7.13,84.57,13.84l-.91,3.77Z"/>
    <path class="cls-1" d="M1419.09,783.72c-16.31-.66-32.65-.52-48.95.41l-.22-3.74c16.42-.96,32.88-1.11,49.32-.46l-.15,3.78Z"/>
    <polygon class="cls-1" points="1285.86 795.9 1265.07 800.68 1264.22 797.13 1285.08 792.32 1285.86 795.9"/>
    <path class="cls-1" d="M1217.55,812.96c-27.39,7.69-54.5,16.4-81.06,26.54l-1.26-3.3c26.67-10.22,53.88-18.97,81.34-26.71l.98,3.47Z"/>
    <path class="cls-1" d="M1116.69,847.4c-15.08,6.29-29.94,13.11-44.45,20.61l-1.6-3.09c14.6-7.57,29.54-14.44,44.69-20.77l1.35,3.25Z"/>
    <path class="cls-1" d="M1001.36,914.7c-5.34,4.64-10.49,9.5-15.35,14.62l-2.46-2.33c4.95-5.21,10.16-10.15,15.57-14.86l2.23,2.57Z"/>
    <path class="cls-1" d="M959.11,969.25c-.22.62-.43,1.25-.62,1.87l-.27.93c-.08.3-.17.64-.21.88l-.17.82-.74.36c-6.02,2.91-11.98,6.16-17.82,9.52-5.85,3.38-11.63,6.87-17.3,10.55-5.67,3.68-11.28,7.44-16.75,11.4-5.51,3.91-10.86,8.03-16.17,12.21l-1.91-2.39c5.34-4.22,10.73-8.39,16.27-12.35,5.51-4.01,11.15-7.81,16.85-11.53,5.7-3.72,11.52-7.26,17.41-10.68,5.91-3.41,11.85-6.68,18.04-9.69l-.91,1.17c.09-.44.17-.75.27-1.11l.29-1.03c.21-.68.43-1.35.66-2.02l3.09,1.09Z"/>
    <path class="cls-1" d="M872.8,1031.54c-12.13,10.91-23.5,22.67-33.72,35.37l-2.25-1.8c10.3-12.86,21.75-24.76,33.95-35.8l2.01,2.23Z"/>
    <path class="cls-1" d="M799.52,1141.38c-.94,3.41-1.78,6.84-2.51,10.3-.74,3.45-1.32,6.95-1.95,10.46l-2.57-.45c.62-3.5,1.2-7.03,1.94-10.55.73-3.51,1.58-7,2.53-10.46l2.56.71Z"/>
    <path class="cls-1" d="M786.41,1210.51c-4.92,28.02-9.54,56.1-13.31,84.29l-2.24-.3c3.7-28.25,8.25-56.37,13.1-84.42l2.44.43Z"/>
    <path class="cls-1" d="M770.46,1315.99c-1.88,16.26-3.43,32.56-4.44,48.89l-2.07-.13c.97-16.38,2.48-32.72,4.32-49.01l2.19.25Z"/>
    <path class="cls-1" d="M767.36,1450.06c.87,7.05,1.99,14.06,3.46,21.01l-1.64.35c-1.51-6.99-2.67-14.05-3.57-21.14l1.75-.22Z"/>
    <path class="cls-1" d="M788,1516.56c3.76,5.99,8.22,11.53,13.4,16.34,5.19,4.92,10.16,10.06,14.82,15.48,9.35,10.81,17.58,22.58,24.56,35.04l-.97.54c-7-12.36-15.23-24.04-24.57-34.74-4.66-5.36-9.62-10.45-14.79-15.32-5.28-4.87-9.85-10.5-13.69-16.56l1.24-.79Z"/>
    <path class="cls-1" d="M850.28,1602.61c6.52,15.07,11.32,30.9,14.1,47.08l-.8.14c-2.84-16.1-7.68-31.84-14.23-46.81l.94-.41Z"/>
    <path class="cls-1" d="M855.58,1733.48c-3.04,6.43-5.61,13.09-7.46,19.96l-.33-.09c1.84-6.9,4.39-13.59,7.43-20.04l.36.17Z"/>
    <path class="cls-1" d="M847.85,1801.97c2.97,11.59,7.81,22.64,13.76,33.01,5.95,10.38,12.99,20.1,20.57,29.35-7.6-9.23-14.67-18.93-20.66-29.3-5.98-10.36-10.85-21.41-13.86-33.01l.2-.05Z"/>
  </g>
  <path class="cls-3" d="M2017.4,1159.42c.69,0,.69-1.07,0-1.07s-.69,1.07,0,1.07h0Z"/>
  <path class="cls-3" d="M1906.32,1043.75c.69,0,.69-1.07,0-1.07s-.69,1.07,0,1.07h0Z"/>
  <path class="cls-3" d="M1285.71,925.85c.69,0,.69-1.07,0-1.07s-.69,1.07,0,1.07h0Z"/>
  <path class="cls-3" d="M2069.13,976.67c.69,0,.69-1.07,0-1.07s-.69,1.07,0,1.07h0Z"/>
  <path class="cls-3" d="M1807.49,1097.52c.69,0,.69-1.07,0-1.07s-.69,1.07,0,1.07h0Z"/>
  <path class="cls-3" d="M1937.42,997.51c3.44,0,3.44-5.34,0-5.34s-3.44,5.34,0,5.34h0Z"/>
  <path class="cls-3" d="M2075.25,1021.91c3.44,0,3.44-5.34,0-5.34s-3.44,5.34,0,5.34h0Z"/>
  <path class="cls-3" d="M2274.19,1341.92c3.44,0,3.44-5.34,0-5.34s-3.44,5.34,0,5.34h0Z"/>
  <path class="cls-3" d="M2170.32,1141.23c1.72,0,1.72-2.67,0-2.67s-1.72,2.67,0,2.67h0Z"/>
  <path class="cls-3" d="M2336.85,1122.98c1.72,0,1.72-2.67,0-2.67s-1.72,2.67,0,2.67h0Z"/>
  <path class="cls-3" d="M2304.7,1301.27c.69,0,.69-1.07,0-1.07s-.69,1.07,0,1.07h0Z"/>
  <path class="cls-3" d="M2507.21,1508.56c.69,0,.69-1.07,0-1.07s-.69,1.07,0,1.07h0Z"/>
  <path class="cls-3" d="M2465.73,1216.41c.69,0,.69-1.07,0-1.07s-.69,1.07,0,1.07h0Z"/>
  <path class="cls-3" d="M2277.56,1224.16c.69,0,.69-1.07,0-1.07s-.69,1.07,0,1.07h0Z"/>
  <path class="cls-3" d="M2169.13,1056.03c.69,0,.69-1.07,0-1.07s-.69,1.07,0,1.07h0Z"/>
  <path class="cls-3" d="M2489.56,1401.55c.88-.13,1.76-.25,2.65-.38.31-.04.65-.36.8-.61.17-.29.24-.71.13-1.03s-.3-.64-.61-.8l-.32-.13c-.24-.06-.47-.06-.71,0-.88.13-1.76.25-2.65.38-.31.04-.65.36-.8.61-.17.29-.24.71-.13,1.03s.3.64.61.8l.32.13c.24.06.47.06.71,0h0Z"/>
  <path class="cls-3" d="M1455.46,927.98c3.44,0,3.44-5.34,0-5.34s-3.44,5.34,0,5.34h0Z"/>
  <path class="cls-3" d="M1204.65,986.85c1.72,0,1.72-2.67,0-2.67s-1.72,2.67,0,2.67h0Z"/>
  <path class="cls-3" d="M1282.96,900.67c1.72,0,1.72-2.67,0-2.67s-1.72,2.67,0,2.67h0Z"/>
  <path class="cls-5" d="M1556.85,1146.61s-45.27-63.92-3.71-62.63"/>
  <path class="cls-3" d="M1937.83,1099.67c.69,0,.69-1.07,0-1.07s-.69,1.07,0,1.07h0Z"/>
  <path class="cls-3" d="M1708.17,1002.73c.69,0,.69-1.07,0-1.07s-.69,1.07,0,1.07h0Z"/>
  <path class="cls-3" d="M1765.12,986.45c1.72,0,1.72-2.67,0-2.67s-1.72,2.67,0,2.67h0Z"/>
  <path class="cls-3" d="M1257.93,1076.45c1.72,0,1.72-2.67,0-2.67s-1.72,2.67,0,2.67h0Z"/>
  <path class="cls-3" d="M1240.34,1178.84c1.72,0,1.72-2.67,0-2.67s-1.72,2.67,0,2.67h0Z"/>
  <path class="cls-3" d="M947.64,1571.2c1.72,0,1.72-2.67,0-2.67s-1.72,2.67,0,2.67h0Z"/>
  <path class="cls-3" d="M1007.44,1460.15c1.72,0,1.72-2.67,0-2.67s-1.72,2.67,0,2.67h0Z"/>
  <path class="cls-3" d="M1063.91,1705.82c1.72,0,1.72-2.67,0-2.67s-1.72,2.67,0,2.67h0Z"/>
  <path class="cls-3" d="M920.59,1817.93c1.72,0,1.72-2.67,0-2.67s-1.72,2.67,0,2.67h0Z"/>
  <path class="cls-3" d="M955.04,1319.16c1.72,0,1.72-2.67,0-2.67s-1.72,2.67,0,2.67h0Z"/>
  <path class="cls-3" d="M1046.08,1352.11c1.72,0,1.72-2.67,0-2.67s-1.72,2.67,0,2.67h0Z"/>
  <path class="cls-3" d="M1298.36,1076.11c1.72,0,1.72-2.67,0-2.67s-1.72,2.67,0,2.67h0Z"/>
  <path class="cls-3" d="M1091.73,1044.53c1.72,0,1.72-2.67,0-2.67s-1.72,2.67,0,2.67h0Z"/>
  <path class="cls-3" d="M1367.53,1051.43c3.44,0,3.44-5.34,0-5.34s-3.44,5.34,0,5.34h0Z"/>
  <path class="cls-3" d="M1006.82,1305.05c3.44,0,3.44-5.34,0-5.34s-3.44,5.34,0,5.34h0Z"/>
  <path class="cls-3" d="M1037.53,1616.44c3.44,0,3.44-5.34,0-5.34s-3.44,5.34,0,5.34h0Z"/>
  <path class="cls-3" d="M870.57,1466.92c3.44,0,3.44-5.34,0-5.34s-3.44,5.34,0,5.34h0Z"/>
  <path class="cls-7" d="M1434.86,1373.79s47.24,37.37,72.97-5.64c22.75-38.03-19.53-72.68-19.53-72.68,0,0-20.64,13.95-35.09,36.71-14.27,22.47-18.34,41.61-18.34,41.61Z"/>
  <path class="cls-7" d="M1289.86,1553.14s11.35,36.41,48.54,29.11c37.2-7.3,30.22-52.04,30.22-52.04,0,0-33.41,2.63-40.61,4.79-7.2,2.16-38.15,18.14-38.15,18.14Z"/>
  <path class="cls-3" d="M2242.38,1146.91c1.72,0,1.72-2.67,0-2.67s-1.72,2.67,0,2.67h0Z"/>
  <path class="cls-3" d="M2360.49,1484.59c1.72,0,1.72-2.67,0-2.67s-1.72,2.67,0,2.67h0Z"/>
  <path class="cls-3" d="M2579.28,1390.24c1.72,0,1.72-2.67,0-2.67s-1.72,2.67,0,2.67h0Z"/>
  <path class="cls-3" d="M2456.9,1326.65c1.72,0,1.72-2.67,0-2.67s-1.72,2.67,0,2.67h0Z"/>
  <path class="cls-3" d="M2475.27,1565.07c1.72,0,1.72-2.67,0-2.67s-1.72,2.67,0,2.67h0Z"/>
  <path class="cls-3" d="M2508.88,1251.18c1.72,0,1.72-2.67,0-2.67s-1.72,2.67,0,2.67h0Z"/>
  <path class="cls-3" d="M2118.83,986.34c1.72,0,1.72-2.67,0-2.67s-1.72,2.67,0,2.67h0Z"/>
  <path class="cls-3" d="M2085.06,1001.93c1.72,0,1.72-2.67,0-2.67s-1.72,2.67,0,2.67h0Z"/>
  <path class="cls-3" d="M2239.45,1329.05c1.72,0,1.72-2.67,0-2.67s-1.72,2.67,0,2.67h0Z"/>
  <g>
    <path class="cls-4" d="M2255.61,1492.38s173.06,500.85,210.24,665.73c0,0-251.56,121.78-621.33,47.11s-771.7,74.37-771.7,74.37l33.04-44,90.57-112.64"/>
    <g>
      <path class="cls-2" d="M1577.67,1147.56c-5.19-17.54-10.42-60.53,20.55-48.25,18.8,8.37,32.76,32.87,40.16,51.33-5.1-9.65-10.83-18.98-17.45-27.64-4.97-6.38-10.39-12.44-17-17.09-33.12-21.55-29.5,20.98-26.26,41.65h0Z"/>
      <path class="cls-2" d="M1465.6,1691.99c-4.12,4.96-9.47,8.77-14.4,12.89-5.04,4.02-10.16,7.96-15.3,11.86-72.29,54.16-146.71,105.39-220.93,156.84,0,0-252.93,178.56-252.93,178.56l-15.83,11.14c-2.66,1.83-5.23,3.76-7.82,5.68-94.84,70.42-192.7,143.13-286.51,214.64-7.85,6.2-16.07,12.07-23.51,18.73-9.82,12.24-18.73,25.19-27.98,37.86-30.14,41.88-59.94,84.02-89.68,126.2,29.34-42.45,58.73-84.87,88.48-127.05,9.36-12.92,18.25-26.26,28.34-38.64,7.47-6.55,15.41-12.45,23.19-18.6,93.31-72.13,191.22-144.92,285.92-215.52,53.69-38.38,160.25-112.76,213.61-150.48,94.75-67.1,191.84-130.9,285.42-199.66,5.17-3.85,10.32-7.74,15.4-11.71,4.97-4.08,10.34-7.82,14.51-12.74h0Z"/>
      <path class="cls-2" d="M914.7,1883.63c-27.96,18.41-55.11,38.18-80.04,60.55-2.31,1.92-7.98,7.81-10.19,10.07.05,0-27.06,27.58-26.74,27.27-35.04,40.98-61.5,95.22-24.47,143.97,10.68,14.33,24.71,25.79,39.47,35.75-9.47-5.78-18.69-12.52-26.98-19.96-4.81-4.47-9.79-9.63-13.78-14.8-38.72-48.74-12.41-105.5,23.62-146.79.04-.12,27.02-27.19,27.08-27.3,0,0,6.75-6.81,6.75-6.81,2.26-2.18,4.87-4.31,7.24-6.36,24.37-20.71,50.64-39.13,78.03-55.6h0Z"/>
      <path class="cls-2" d="M1292.49,1597.37c-40.58,43.84-83.04,85.97-127.38,126.01-37.07,33.22-75.31,65.63-117.75,91.87-3.7,2.1-9.27,5.5-13.05,7.39,0,0-6.66,3.45-6.66,3.45l-6.84,3.11c-18.29,7.84-36.36,16.11-54.01,25.3-17.72,9.04-35.05,18.83-52.1,29.12,16.69-10.87,33.9-20.92,51.41-30.42,17.53-9.47,35.57-18.01,53.76-26.11,0,0,6.7-3.17,6.7-3.17,3.84-2.08,9.34-4.91,13.02-7.15,10.61-6.12,21.26-13.14,31.21-20.22,80.4-58.6,151.63-128.81,221.68-199.2h0Z"/>
      <path class="cls-2" d="M1357.96,1627.65c-25.82-16.14-52.73-31.07-80.76-43.02-18.7-7.82-37.89-14.75-57.88-18.33-20.18-3.85-39.62-12.04-56.1-24.34-8.19-6.16-15.69-13.24-22.07-21.2,20.56,22.69,48.76,37.42,78.69,42.75,10.11,1.67,20.08,4.39,29.81,7.53,38.82,12.93,74.99,33.07,108.31,56.61h0Z"/>
      <path class="cls-2" d="M1386.94,1741.69c2.72-4.73,4.82-10.04,7.41-14.83,7.71-14.65,17.11-29.24,30.87-38.89-7.52,8.09-14.04,16.88-20.01,26.11-3.03,4.57-5.9,9.25-8.83,13.93-3,4.63-5.67,9.61-9.44,13.68h0Z"/>
      <path class="cls-2" d="M1829.14,1249.52c-42.09,13.29-92.82,19.84-136.07,9.05-6.34-1.77-12.59-3.82-18.57-6.52,6.22,2.06,12.51,3.82,18.9,5.09,25.59,5.07,51.93,4.64,77.79,2.03,19.48-2.01,38.84-5.25,57.94-9.65h0Z"/>
      <path class="cls-2" d="M1558.27,1156.62c-5.78-18.93-8.14-42.19,3.27-59.52,4.88-7.21,12.36-12.39,20.53-15.21,19.69-7.1,36.87,10.01,46.86,25.06,11.42,17.06,19.39,36.16,26.22,55.41,8.91,25.77,15.76,52.25,19.53,79.28.66,5.1,1.22,10.23,1.27,15.39.01,2.6-.09,5.45-1.11,7.97-1.52,4.38-4.3,12.39-5.84,16.84,0,0,0-.84,0-.84,9.01,27.64,15.65,56.03,20.19,84.73.96,6.34,2.02,13.95,2.75,20.32,2.06,18.65,3.3,37.46,3.39,56.22-.78-20.43-2.51-40.88-5.49-61.11-4.72-33.73-12.79-66.98-23.37-99.33,0,0-.14-.42-.14-.42l.14-.42s3.29-9.64,3.29-9.64c.77-2.25,2.12-6.21,2.87-8.42.53-1.86.52-3.85.53-5.88-.73-18.55-4.95-36.79-9.25-54.82-9.01-35.04-23.94-83.63-49.86-109.34-7.12-6.81-16.59-11.97-26.61-10.39-9.72,1.7-18.97,7.35-24.68,15.46-11.59,16.8-9.58,39.82-4.51,58.66h0Z"/>
      <path class="cls-2" d="M1955.36,1605.85c3.14,6.58,7.82,12.32,12.89,17.52,26.15,26,64.09,35.38,99.91,37.46,21.79,1.2,43.67-.16,65.28-3.06,21.54-2.78,42.99-8.17,62.21-18.47,40.46-20.84,61.17-62.54,62.02-107.04.39-14.41-.71-29.04-4.09-43.05-1.83-6.92-4.55-13.69-7.33-20.38-26.64-59.88-60.43-116.31-93.28-172.93-14.32-25.19-33.09-47.91-54.17-67.72-31.56-29.55-71-52.53-114.45-57.68-21.4-2.3-43.83-1.95-63.84,6.73-20.03,8.53-37.66,21.76-53.94,36.11-32.57,29.12-60.19,63.3-86.06,98.4-51.31,70.78-95.98,146.3-136.04,223.96,39.55-77.97,83.52-153.97,134.63-224.99,25.79-35.3,53.38-69.72,85.95-99.08,16.37-14.54,34.19-28.06,54.47-36.74,20.36-8.88,43.38-9.32,65.14-7,44.04,5.16,84.05,28.35,116.05,58.24,16.07,14.99,30.55,31.65,43.12,49.67,2.09,3.01,4.12,6.05,6.06,9.21,9.29,15.58,18.69,31.45,27.66,47.18,25.12,44.41,50.65,88.81,71.09,135.64,2.79,6.76,5.52,13.57,7.41,20.75,3.45,14.34,4.48,29.08,4.04,43.77-1.06,45.28-22.26,87.58-63.52,108.68-19.46,10.33-41.16,15.74-62.91,18.44-21.72,2.81-43.7,4.06-65.58,2.61-41.01-2.46-92.38-17.3-112.73-56.23h0Z"/>
      <path class="cls-2" d="M872.11,1912.53c88.15-16.89,176.1-35.27,262.75-58.73,27.47-7.64,54.89-15.68,81.5-25.95,9.35-3.68,18.87-7.69,27.75-12.45,31.09-16.11,48.88-48.34,64.12-78.54,14.39-29.3,25.62-60,39.29-89.68,3.48-7.41,7.12-14.77,11.4-21.82,4.36-7.05,9.17-14.05,16.1-18.9,3.47-2.42,7.8-4.03,12.2-3.73,4.21.33,8.23,1.16,12.25,2.1,23.81,6.22,46.25,16.59,68.43,27,14.83,7.1,29.46,14.61,43.88,22.5.82,13.13,1.89,26.27,3.44,39.33,1.03,8.08,2.02,16.23,4.03,24.13,1.18,4.74,3.58,9.13,5.11,13.76-1.4-3.84-3.19-7.53-4.65-11.34-.4-1.37-1.02-3.36-1.32-4.73-4.43-19.96-5.98-40.44-7.69-60.78-26.87-13.18-58.51-29.7-88.49-40.51-11.39-4.04-23.07-8.1-35.12-9.18-8.02-.39-14.46,5.75-19.19,11.7-7.46,9.59-12.84,20.59-18.01,31.57-20.42,44.44-35.37,91.98-63.67,132.41-10.68,15.11-24.03,28.88-40.74,37.25-12.66,6.71-26.17,11.91-39.61,16.8-108.43,36.45-221.43,57.41-333.76,77.79h0Z"/>
      <path class="cls-2" d="M1415.82,1669.27c16.7-1.04,36.3,1.03,49.37,12.48,0,0,.25.22.25.22l.12.38c2.65,8.4,5.82,16.73,9.51,24.75,6.44,13.47,17.62,35.35,34.5,35.76,4.64-.17,16.29.2,17.36-5.52.18-2.17-1.15-4.24-2.57-5.81.83.75,1.57,1.6,2.16,2.57,2.38,3.61.11,6.9-3.57,8.24-4.29,1.75-8.87,2.08-13.35,2.34-4.69.24-9.36-1.38-13.23-3.88-11.42-7.77-18.22-20.31-24.03-32.45-3.7-8.21-6.88-16.59-9.36-25.27l.37.61c-12.29-11.22-31.43-13.97-47.55-14.43h0Z"/>
      <path class="cls-2" d="M1414.2,1610.29c9.92-8.26,22.78-13.1,35.77-12.66,12.93.46,25.49,3.63,38.15,5.88,12.6,2.32,25.22,4.53,37.93,5.9,3.49.42,11.15.98,14.51,1.78,4.73,1.12,8.64,4.85,10.74,9.14,1.51,3.56,1.98,7.41,2.33,11.04.51,6.47.7,12.88,1.01,19.28.61,12.81,1.41,25.59,2.5,38.37.91,13.38,6.06,58.96-5.28,66.33-8.23,4.66-19.02-8.15-23.92-13.64,4.88,4.94,15.98,17.08,23.3,12.69,8.35-6.41,5.58-35.71,5.03-46.01-1.02-12.77-2.49-25.56-3.38-38.36-1.02-12.76-1.31-25.69-2.24-38.41-.49-4.59-.86-9.21-3.74-12.82-1.86-2.2-4.15-4.15-7.04-4.79-4.59-.96-9.44-1.15-14.14-1.79-6.4-.76-12.77-1.73-19.11-2.82-6.35-1.07-12.66-2.32-18.95-3.64-27.2-5.41-48.77-13.8-73.47,4.53h0Z"/>
      <path class="cls-2" d="M1462,1601.93c29.65-9.52,61.86-19.53,91.69-28.79,3.87-1.18,9.27-2.83,13.04-4.13,8.76-2.74,17.73-6.82,27.16-5.82,10.25,1.12,15.55,11.52,18.09,20.34,5.1,17.83,5.61,36.39,6.67,54.7.95,18.31,2.12,36.56,2.37,54.91-.03,6.94.12,14.02-1.68,20.85-1.26,5.19-4.94,8.94-10.25,9.97-6.99,1.71-15.04,1.25-20.63-3.73-7.12-6.28-10.64-15.5-13.66-24.22-8.32-26.27-11.76-53.8-15.13-81.03,0,0,.41.41.41.41,0,0-17.81-2.34-17.81-2.34,0,0-17.8-2.4-17.8-2.4,8.92.94,26.8,2.81,35.72,3.8,0,0,.36.04.36.04,0,0,.05.37.05.37,1.28,9.06,2.66,18.1,4.16,27.12,3.05,17.97,6.34,36.01,12.23,53.28,3.42,9.36,8.52,22.64,18.67,26.09,4.09,1.37,8.66.93,12.83,0,4.38-.89,7.22-3.78,8.24-8.12,1.66-6.49,1.48-13.36,1.48-20.08-.13-9.11-.6-18.24-1.06-27.37-1-16.09-1.61-38.95-3.09-54.74-1.63-13.47-3.79-43.22-20.5-45.34-4.25-.6-8.73.27-13.07,1.37-39.39,12.03-78.91,23.53-118.47,34.87h0Z"/>
      <path class="cls-2" d="M1531.77,1578.24c2.79-.68,5.11-2.51,7.43-4.12,2.31-1.67,4.54-3.45,6.75-5.26,8.81-7.29,17.26-14.99,26.1-22.26,4.44-3.62,8.88-7.25,13.82-10.38,1.9-1.15,3.93-2.34,6.17-2.86,0,0,2.27-.33,2.27-.33,8.72-.52,17.32.9,25.9,1.89,5.67.73,11.33,1.54,16.98,2.23,8.42.93,16.84,2.14,25.23.99,18.58-2.49,35.5-11.28,22.67,16.49-4.9,10.52-14.27,20.05-26.28,21.43-5.76.54-11.48.6-17.24.62-11.45-.1-22.88-.6-34.28-1.59,11.43.32,22.86.51,34.26.12,5.68-.17,11.45-.39,17-1.03,5.48-.82,10.58-3.41,14.62-7.17,6.08-5.66,10.15-13.39,12.51-21.33.51-2.01,1.74-5.39.81-7.09-.34-.55-1.48-.85-2.75-.88-4.12,0-8.25,1.11-12.37,1.86-3.52.68-7.09,1.38-10.68,1.78-7.95.73-16.02-.39-23.85-1.3-14.04-1.53-28.19-4.82-42.3-4.53-2.74.11-5.12,1.26-7.47,2.67-4.8,2.88-9.33,6.39-13.82,9.88-8.96,7.08-17.68,14.5-26.79,21.41-4.6,3.23-9.13,7.34-14.66,8.76h0Z"/>
      <path class="cls-2" d="M1440.39,1556.09c4.78-3.53,14.92-6.52,20.17-2.86-6.86.58-13.19,3.15-20.17,2.86h0Z"/>
      <path class="cls-2" d="M1439.1,1440.66c-6.86-16.51-9.13-34.86-7.69-52.63,2.6-34.16,21.61-64.65,47.81-86,4.99-4.31,9.03-9.58,13.15-14.74,8.22-10.5,15.93-21.38,23.61-32.29-9.34,15.19-18.85,30.35-30.35,44.03-2.42,3.01-6.79,6.69-9.71,9.3-1.62,1.5-3.15,3.09-4.74,4.63-21.13,20.88-35.55,48.75-37.77,78.59-1.31,16.52.35,33.36,5.68,49.12h0Z"/>
      <path class="cls-2" d="M1468.41,1292.54c-22.3,17.24-38.98,41.16-48.56,67.57-3.15,8.83-5.56,17.93-7.4,27.22,2.54-37.73,23.27-75.11,55.96-94.78h0Z"/>
      <path class="cls-2" d="M1471.05,1311.11c5.95-13.13,12.21-26.6,12.77-41.2.06-2.07-.06-4.14-.27-6.25.85,1.95,1.38,4.04,1.74,6.16,1.89,14.59-4.98,30.3-14.24,41.3h0Z"/>
      <path class="cls-2" d="M1446.19,1341.37c6.91-13.72,9.24-28.4,3.62-43.02,9.81,12.54,7.11,31.89-3.62,43.02h0Z"/>
      <path class="cls-2" d="M1512.95,1286.21c1.63-8.63,9.08-17.66,18.44-17.44-2.01,1.11-3.79,2.16-5.45,3.44-4.86,3.76-9.05,9.27-12.99,13.99h0Z"/>
      <path class="cls-2" d="M1526.6,1308.73c5.71-7.64,15.89-14.68,25.69-14.68-8.9,4.18-17.03,10.06-25.69,14.68h0Z"/>
      <path class="cls-2" d="M1530.75,1337.96c7.84-4.52,19.43-6.22,27.55-1.59-9.2-.47-18.39,1.1-27.55,1.59h0Z"/>
      <path class="cls-2" d="M1343.81,1386.72c-.21-36.53,9.54-74.16,31.07-104.05,12.89-17.93,31.14-32.17,51.75-39.91-1.72.87-5.67,2.93-7.32,3.74,0,0-2.36,1.39-2.36,1.39l-4.7,2.78c-1.66,1.15-5.16,3.53-6.74,4.64-40.85,30.13-58.07,82.48-61.7,131.42h0Z"/>
      <path class="cls-2" d="M1377.87,1530.76c-26.78-.78-54.27,3.91-77.72,17.24-9.64,5.07-17.11,13.38-27.1,17.89-3.15,1.36-6.51,2.46-9.97,2.57-2.03.08-4.21-.18-5.97-1.22,5.15,1.93,10.68-.35,15.3-2.68,4.71-2.52,8.91-5.87,12.98-9.37,4.11-3.65,8.64-6.8,13.33-9.65,23.56-13.86,52.25-18.55,79.16-14.79h0Z"/>
      <path class="cls-2" d="M1302.91,1587.29c-2.72,5.94-5.11,11.93-6.16,18.42-3.31-6.38,0-15.06,6.16-18.42h0Z"/>
      <path class="cls-2" d="M1324.4,1597.71c.47,4.14,1.01,8.67,1.79,12.74.22,1.42.53,2.84.65,4.45-1.22-1.03-2.18-2.3-2.88-3.69-2.07-4.13-2.4-9.64.44-13.51h0Z"/>
      <path class="cls-2" d="M1348.24,1589.62c1.44,4.05,3.02,8.49,4.84,12.35.58,1.36,1.27,2.68,1.84,4.24-1.48-.7-2.77-1.73-3.82-2.96-3.11-3.63-4.7-9.06-2.86-13.64h0Z"/>
      <path class="cls-2" d="M1260.24,1589.3c7.39-9.34,16.81-18.13,23.26-28.15.9-1.47,1.68-3,2.21-4.71.04,11.85-15.95,26.92-25.47,32.85h0Z"/>
      <path class="cls-2" d="M1265.77,1561.75c4.25-10.61,10.88-20.59,19.73-27.96,6.56-5.19,14.71-7.98,22.57-10.09,6.35-1.61,12.8-2.76,19.31-3.18-9.4,2.52-18.71,5.08-27.67,8.78-4.41,1.82-8.63,3.9-12.39,6.78-8.76,7.09-15.5,16.17-21.56,25.67h0Z"/>
      <path class="cls-2" d="M1282.96,1477.72c-11.72,5.26-23.47,10.27-34.99,15.88-7.53,3.69-15.27,7.5-21.88,12.59-3.18,2.49-5.65,5.93-8.04,9.4-4.68,7.04-8.68,14.61-12.58,22.23,1.36-4.07,2.99-8.04,4.73-11.97,3.74-7.84,7.42-15.87,14.11-21.81,10.22-8.13,22.37-13.16,34.3-18.06,7.98-3.14,16.08-5.97,24.35-8.27h0Z"/>
      <path class="cls-2" d="M1051.44,1133.82c29.83,83.07,96.83,143.42,189.03,132.48,84.92-8.1,156.23-58.43,231.19-94.43,22.93-10.38,47.64-19.52,73.2-18.25,25.4,1.82,49.06,13.2,71.48,24.36,29.59,14.73,59.54,33.66,93.72,32.88,16.81-.39,33.09-6.3,47.33-15.07-14.12,9.07-30.39,15.26-47.3,15.86-16.93.76-33.62-3.79-49.17-10.12-38.39-15.62-73.87-42.14-116.18-45.41-16.66-.82-33.17,3.09-48.78,8.66-23.65,8.53-45.78,20.58-67.88,32.51-44.15,24.21-88.8,48.67-137.7,62.1-32.43,8.74-66.76,13.99-100.15,7.97-68.11-11.38-118.16-70.37-138.78-133.56h0Z"/>
      <path class="cls-2" d="M1117.03,1683.83c45.01-14.83,88.18-37.04,64.63-91.46-8.61-20.49-21.72-38.5-34.01-56.9-39.51-59.89-33.9-127.78-14.96-193.74,9.78-31.8,7.14-67.37-9.43-96.47-5.42-9.66-11.96-18.81-20-26.47,4.11,3.74,7.76,7.97,11.16,12.36,20.62,26.49,29.14,61.6,23.35,94.65-.88,5.51-2.2,10.96-3.65,16.32-5.77,21.4-10.51,43.15-12.72,65.22-4.96,43.95,3.85,89.6,28.5,126.68,12.33,18.28,25.91,36.37,34.42,57.24,23.64,56.16-19.76,79.45-67.3,92.56h0Z"/>
      <path class="cls-2" d="M729.12,2435.38c.33-16.08,5.25-32.41,15.08-45.27,4.94-6.42,11.22-11.8,18.31-15.73,0,0,21.09-11.92,21.09-11.92,195.33-112.34,389.39-231.56,587.72-338.66,0,0,1,2.7,1,2.7l-29.77,6.41s-.62-2.88-.62-2.88c2.21-.41,29-6.26,30.11-6.51,3.21-.88,6.36-2.11,9.44-3.42,20.79-9.3,39.95-21.81,59.08-34.16,165.87-111.62,321.68-243.61,484.31-359.87,11.22-7.84,22.72-15.49,34.52-22.44,19.61-11.6,40.24-22.24,62.16-28.72,8.8-2.48,17.84-4.36,27.02-4.49,7.95-.08,16.29,1.04,23.02,5.52.94.65,1.84,1.37,2.6,2.22-.76-.85-1.67-1.57-2.61-2.2-6.75-4.42-15.1-5.47-23-5.34-9.15.19-18.15,2.14-26.91,4.67-21.83,6.62-42.33,17.37-61.83,29.09-11.74,7.04-23.15,14.74-34.3,22.65-131.65,95.68-261.97,202.5-393.5,298.29-44.54,32.05-88.7,65.06-136.91,91.55-7.19,3.71-14.51,7.37-22.35,9.57-2.23.63-27.42,5.81-30.23,6.49,0,0-.62-2.88-.62-2.88,7.65-1.58,32.63-7.02,39.66-8.48,0,0-8.89,4.82-8.89,4.82-198.88,107.01-392.6,225.36-588.79,336.66,0,0-21.16,11.8-21.16,11.8-7.07,3.85-13.33,9.15-18.29,15.5-9.9,12.75-14.89,29.02-15.34,45.06h0Z"/>
    </g>
    <path class="cls-2" d="M1597.14,1876.07c84.57,9.4,168.27,26.22,250.36,48.54,61.41,17.26,122.09,38.12,179.61,65.84,19.08,9.43,37.86,19.46,56,30.57-18.48-10.52-37.37-20.28-56.63-29.24-77.22-35.6-158.96-60.3-241.48-80.23-62.04-14.66-124.7-26.78-187.86-35.49h0Z"/>
  </g>
</svg>