<svg width="963" height="468" viewBox="0 0 963 468" fill="none" xmlns="http://www.w3.org/2000/svg">
<g clip-path="url(#clip0_19_243)">
<path d="M963 0H1.04736V467.038H963V0Z" fill="#D5E6EB"/>
<path d="M962.84 218.983V240.494C953.383 255.21 932.321 271.712 858.187 297.445C704.125 350.922 554.282 352.783 381.708 363.319C137.261 378.232 113.998 439.05 1.05342 467.044C0.964648 385.578 0.875879 304.113 0.787109 222.653L962.84 218.983Z" fill="#4C7D9D"/>
<path d="M1.27219 457.059C11.1493 454.647 21.121 452.635 31.146 450.925C41.4374 449.168 51.7879 447.73 62.1621 446.506C72.5363 445.283 83.4016 444.239 94.048 443.364C104.694 442.488 115.465 441.735 126.183 441.056C137.054 440.366 147.931 439.734 158.802 439.085C169.674 438.435 180.427 437.78 191.233 437.026C202.039 436.273 212.632 435.438 223.314 434.417C233.996 433.397 244.275 432.243 254.715 430.811C264.941 429.407 275.138 427.755 285.263 425.749C295.365 423.748 305.55 421.603 315.315 418.339C320.073 416.75 324.777 414.854 329.098 412.308C332.903 410.07 336.525 407.299 339.034 403.669C341.229 400.486 342.585 396.601 342.259 392.728C341.934 388.854 339.91 385.277 336.826 382.784C328.991 376.458 317.676 376.777 309.817 370.52C308.231 369.256 306.663 367.644 306.189 365.632C305.674 363.452 306.941 361.521 308.479 360.06C310.166 358.448 312.208 357.173 314.238 356.013C316.143 354.929 318.126 353.972 320.156 353.137C328.908 349.554 338.448 348.011 347.852 347.206C358.001 346.336 368.203 346.359 378.388 346.475C390.556 346.614 402.729 346.724 414.902 346.823C427.075 346.916 439.243 346.991 451.416 347.043C463.589 347.095 475.756 347.124 487.93 347.136C500.103 347.148 511.939 347.136 523.946 347.095C535.954 347.055 547.47 346.991 559.235 346.869C571 346.747 582.783 346.568 594.554 346.313C606.324 346.057 618.077 345.721 629.836 345.286C641.595 344.851 653.301 344.312 665.019 343.645C676.748 342.979 688.472 342.19 700.177 341.245C711.741 340.311 723.293 339.227 734.821 337.969C746.349 336.711 757.877 335.273 769.37 333.638C780.863 332.002 792.16 330.193 803.499 328.141C809.121 327.126 814.737 326.053 820.336 324.923C825.508 323.879 830.763 322.957 835.823 321.455C839.604 320.336 843.907 318.852 846.629 315.901C847.73 314.706 848.493 313.245 848.558 311.616C848.647 309.337 847.286 307.313 845.765 305.707C844.049 303.904 841.989 302.408 839.959 300.959C837.93 299.509 836.018 298.257 833.971 297.022C829.633 294.407 825.082 292.122 820.401 290.151C815.72 288.179 810.5 286.359 805.387 284.944C802.931 284.265 800.445 283.72 797.978 283.088C795.865 282.549 793.598 281.94 791.823 280.647C790.403 279.615 789.556 277.992 790.408 276.333C791.355 274.484 793.362 273.214 795.143 272.228C798.374 270.437 801.978 269.341 805.505 268.274C811.932 266.326 818.489 264.789 825.07 263.415C832.237 261.919 839.445 260.62 846.653 259.356C853.861 258.092 861.371 256.828 868.715 255.483C875.627 254.219 882.533 252.868 889.369 251.239C895.434 249.795 901.471 248.148 907.306 245.956C912.017 244.188 916.704 242.071 920.751 239.074C924.006 236.662 926.847 233.641 928.273 229.837C929.699 226.034 929.409 222.096 928.238 218.368C927.96 217.481 926.527 217.858 926.811 218.751C927.983 222.479 928.167 226.468 926.598 230.057C925.018 233.676 922.018 236.499 918.757 238.697C914.49 241.573 909.673 243.614 904.814 245.313C898.861 247.4 892.73 248.995 886.575 250.398C879.628 251.981 872.615 253.314 865.596 254.578C858.577 255.842 850.973 257.124 843.67 258.411C836.367 259.698 829.349 260.991 822.241 262.534C815.797 263.931 809.376 265.496 803.097 267.503C799.238 268.738 795.279 270.06 792.024 272.495C790.574 273.579 789.065 275 788.669 276.82C788.272 278.641 789.118 280.299 790.491 281.447C792.095 282.787 794.16 283.517 796.155 284.091C798.569 284.793 801.043 285.292 803.475 285.93C808.606 287.281 813.648 288.945 818.554 290.945C823.46 292.945 827.828 295.102 832.201 297.665C834.308 298.9 836.367 300.216 838.368 301.608C840.368 303 842.504 304.53 844.292 306.293C845.824 307.801 847.404 309.818 847.043 312.085C846.789 313.657 845.7 314.921 844.475 315.901C841.173 318.551 836.675 319.809 832.609 320.818C827.26 322.151 821.809 323.16 816.4 324.227C810.991 325.294 805.168 326.384 799.54 327.375C788.231 329.37 776.886 331.144 765.512 332.721C754.001 334.316 742.461 335.713 730.903 336.931C719.346 338.149 707.8 339.198 696.23 340.097C684.66 340.996 672.878 341.761 661.19 342.399C649.508 343.037 637.826 343.547 626.132 343.958C614.438 344.37 602.608 344.689 590.843 344.927C579.12 345.165 567.396 345.327 555.667 345.443C543.937 345.559 532.149 345.617 520.384 345.646C508.619 345.675 496.386 345.681 484.391 345.669C472.218 345.657 460.05 345.623 447.877 345.565C435.757 345.507 423.631 345.431 411.511 345.333C399.509 345.234 387.514 345.089 375.512 344.985C365.446 344.892 355.35 344.967 345.325 345.988C336.004 346.939 326.606 348.672 318.019 352.482C316.031 353.363 314.101 354.361 312.249 355.497C310.267 356.715 308.249 358.06 306.698 359.799C305.307 361.365 304.378 363.29 304.662 365.4C304.929 367.331 306.089 369.013 307.462 370.375C314.658 377.519 326.032 377.409 334.323 382.755C337.726 384.952 340.3 388.327 340.756 392.368C341.212 396.41 339.833 400.039 337.596 403.176C334.998 406.817 331.157 409.519 327.257 411.682C322.795 414.158 317.99 415.984 313.119 417.521C303.354 420.606 293.235 422.722 283.186 424.67C273.137 426.618 262.828 428.259 252.578 429.639C242.127 431.043 231.641 432.185 221.142 433.165C210.448 434.162 199.743 434.985 189.025 435.722C178.261 436.464 167.49 437.113 156.713 437.751C145.937 438.389 135.054 439.021 124.23 439.723C113.406 440.424 102.813 441.166 92.1188 442.065C81.5316 442.958 70.9502 443.99 60.3985 445.26C49.8468 446.53 39.8632 447.944 29.6606 449.707C20.0084 451.377 10.4036 453.331 0.893436 455.656C-0.0297656 455.882 0.36082 457.28 1.28402 457.054L1.27219 457.059Z" fill="white"/>
<path d="M822.762 218.571C825.674 218.786 827.792 221.14 828.769 223.679C829.745 226.219 829.858 229.043 828.053 231.223C825.502 234.308 821.383 236.006 817.708 237.415C813.583 238.993 809.376 240.378 805.15 241.666C796.516 244.304 787.734 246.449 778.881 248.247C769.838 250.085 760.724 251.557 751.581 252.816C742.438 254.074 732.987 255.141 723.672 256.103C714.245 257.072 704.811 257.953 695.378 258.857C685.951 259.768 676.523 260.707 667.12 261.815C657.864 262.899 648.632 264.14 639.442 265.665C635.263 266.36 631.091 267.039 627.061 268.372C623.735 269.474 620.309 270.9 617.64 273.197C615.681 274.884 614.231 277.36 615.219 279.94C616.569 283.459 620.705 285.077 624.025 286.272C633.121 289.553 642.602 291.971 652.088 293.885C657.03 294.882 662.007 295.717 667.007 296.39C671.541 297.004 676.216 297.346 680.548 298.877C682.441 299.544 684.252 300.472 685.608 301.956C686.62 303.063 687.436 304.635 687.034 306.154C686.549 307.992 684.56 308.96 682.885 309.557C680.731 310.329 678.459 310.81 676.234 311.32C666.658 313.523 656.911 314.979 647.129 315.97C637.151 316.979 627.126 317.518 617.101 317.849C607.076 318.179 596.672 318.324 586.458 318.44C576.244 318.556 565.704 318.614 555.324 318.632C544.89 318.649 534.457 318.626 524.024 318.579C513.59 318.533 503.157 318.469 492.718 318.4C482.278 318.33 471.946 318.261 461.565 318.203C451.185 318.145 440.705 318.11 430.277 318.11C419.856 318.11 409.434 318.145 399.013 318.232C388.591 318.319 378.288 318.469 367.926 318.69C357.563 318.91 347.124 319.206 336.732 319.594C326.346 319.983 315.966 320.47 305.586 321.067C295.206 321.664 285.423 322.215 275.381 323.166C267.989 323.867 260.485 325.114 253.52 327.706C248.531 329.561 242.352 332.553 240.79 338.033C239.482 342.619 242.204 346.736 245.595 349.647C249.655 353.131 254.532 355.607 259.148 358.28C261.45 359.614 263.74 360.982 265.876 362.559C267.675 363.887 269.445 365.412 270.67 367.285C271.776 368.966 272.368 370.944 272.025 372.95C271.558 375.687 269.551 377.855 267.338 379.45C264.491 381.502 261.189 382.905 257.869 384.042C254.159 385.312 250.33 386.245 246.471 386.987C236.724 388.866 226.824 390.153 216.97 391.353C207.117 392.554 196.642 393.586 186.451 394.415C176.261 395.244 166.052 395.911 155.844 396.479C145.564 397.053 135.279 397.529 124.987 397.969C114.696 398.41 104.192 398.845 93.7938 399.28C83.396 399.714 72.9153 400.155 62.476 400.59C52.0367 401.025 41.4968 401.466 31.0102 401.906C20.9142 402.33 10.8181 402.753 0.728001 403.17C-0.218872 403.211 -0.22479 404.66 0.728001 404.62C11.2679 404.179 21.8019 403.738 32.3417 403.298C42.8816 402.857 53.4156 402.416 63.9555 401.976C74.4954 401.535 85.0293 401.094 95.5692 400.654C106.109 400.213 116.347 399.796 126.733 399.343C137.119 398.891 147.405 398.41 157.731 397.818C168.058 397.227 178.338 396.543 188.617 395.679C198.849 394.821 209.07 393.789 219.255 392.513C224.297 391.881 229.327 391.191 234.351 390.437C239.003 389.736 243.678 389.046 248.282 388.095C252.147 387.295 255.987 386.297 259.686 384.923C262.935 383.717 266.137 382.239 268.871 380.105C271.037 378.412 272.936 376.133 273.445 373.396C273.842 371.245 273.416 369.082 272.345 367.18C269.971 362.977 265.314 360.217 261.248 357.81C256.591 355.05 251.614 352.615 247.383 349.223C244.045 346.55 240.873 342.718 242.275 338.218C243.021 335.829 244.939 333.956 246.98 332.559C249.655 330.727 252.703 329.457 255.78 328.437C263.036 326.042 270.688 324.958 278.298 324.36C288.702 323.543 299.117 322.859 309.533 322.285C319.949 321.711 330.293 321.258 340.685 320.887C351.077 320.516 361.582 320.244 372.033 320.041C382.496 319.838 392.959 319.71 403.422 319.635C413.884 319.559 424.365 319.536 434.84 319.548C445.315 319.559 455.801 319.606 466.276 319.664C476.751 319.722 487.243 319.797 497.724 319.867C508.205 319.936 518.591 320 529.03 320.035C539.469 320.07 549.992 320.087 560.472 320.052C570.947 320.023 581.422 319.942 591.897 319.803C602.099 319.664 612.302 319.501 622.493 319.084C632.683 318.666 642.584 318.005 652.568 316.805C662.551 315.605 672.02 314.132 681.406 311.529C684.667 310.624 689.052 308.833 688.584 304.785C688.158 301.098 684.531 298.784 681.293 297.59C676.961 295.984 672.245 295.624 667.688 295.015C662.687 294.349 657.71 293.519 652.763 292.528C643.188 290.609 633.606 288.168 624.428 284.857C621.528 283.813 616.788 282.097 616.397 278.531C616.095 275.777 619.054 273.724 621.155 272.507C624.481 270.576 628.245 269.358 631.991 268.488C636.364 267.474 640.862 266.859 645.294 266.175C654.657 264.731 664.06 263.56 673.476 262.522C682.891 261.484 692.336 260.574 701.775 259.675C711.215 258.776 720.707 257.872 730.164 256.845C739.621 255.819 748.805 254.706 758.085 253.32C767.216 251.958 776.306 250.346 785.313 248.339C794.32 246.333 802.866 244.031 811.423 241.161C815.554 239.775 819.774 238.39 823.632 236.354C826.491 234.841 829.911 232.58 830.734 229.281C832.006 224.178 828.467 217.51 822.786 217.098C821.839 217.029 821.839 218.478 822.786 218.548L822.762 218.571Z" fill="white"/>
<path d="M725.737 149.676C741.18 149.676 753.7 137.309 753.7 122.053C753.7 106.798 741.18 94.4304 725.737 94.4304C710.294 94.4304 697.775 106.798 697.775 122.053C697.775 137.309 710.294 149.676 725.737 149.676Z" fill="#E53D38"/>
<path d="M962.882 167.686H800.712V219.476H962.882V167.686Z" fill="#D5E6EB"/>
</g>
<defs>
<clipPath id="clip0_19_243">
<rect width="963" height="467.044" fill="white"/>
</clipPath>
</defs>
</svg>
