<svg width="504" height="111" viewBox="0 0 504 111" fill="none" xmlns="http://www.w3.org/2000/svg">
<g clip-path="url(#clip0_19_251)">
<path d="M7.91691 58.6333V11.3003C7.91691 8.6807 7.55586 6.54905 6.80797 4.93105C6.08587 3.33873 2.6559 0.873207 0.0253906 0.873207V0.770477H35.1246C37.1877 0.770477 38.7351 1.10435 39.7925 1.7721C40.8498 2.43984 41.5719 3.31305 41.9846 4.39172C42.3972 5.47038 42.6035 6.60042 42.6035 7.75613L41.9072 14.3052L41.7525 14.3822C41.7525 10.8894 39.8956 8.26978 37.9872 6.67746C36.0788 5.05946 33.3709 4.2633 29.8378 4.2633H21.1468C18.2068 4.2633 15.8342 6.6261 15.8342 9.55391V25.9651C15.86 27.6344 17.1753 28.9956 18.8516 29.047L32.3909 29.3295L32.3394 30.9732H15.8342V58.6076H7.91691V58.6333Z" fill="#0D283F"/>
<path d="M209.899 9.78505L187.901 58.4535H186.147L161.518 8.50092L161.596 58.4792H159.713V0.590698H168.069L189.19 46.1772L209.899 0.590698" fill="#0D283F"/>
<path d="M236.204 58.4535V11.1205C236.204 8.50092 235.843 6.36927 235.095 4.75127C234.373 3.15895 232.645 0.667746 229.989 0.667746H228.235V0.590698H265.758C267.821 0.590698 269.369 0.924571 270.426 1.59232C271.483 2.26006 272.206 3.13327 272.618 4.21194C273.031 5.29061 273.237 6.42064 273.237 7.57635V14.1511C273.237 10.6583 270.529 8.09 268.621 6.472C266.712 4.854 264.005 4.05784 260.471 4.05784H249.33C246.442 4.05784 244.121 6.39495 244.121 9.24572V26.8383H267.899L264.572 30.254L244.121 30.3568L244.224 57.118H259.62C263.592 57.3491 266.119 56.3475 268.905 54.9093C271.69 53.4711 274.888 49.2078 276.229 45.7149L274.114 51.7247C273.65 53.0602 271.896 56.4759 270.813 57.2464C269.73 58.0426 268.311 58.4278 266.532 58.4278H236.152L236.204 58.4535Z" fill="#0D283F"/>
<path d="M288.143 58.4535V11.1205C288.143 8.50092 287.782 6.36927 287.034 4.75127C286.312 3.15895 284.713 0.821841 282.057 0.821841H280.303L280.226 0.590698H288.143C290.207 0.590698 291.805 0.847524 292.94 1.38686C294.075 1.90051 294.9 2.92781 295.364 4.46876C295.829 5.98403 296.061 8.21842 296.061 11.1205V19.9553C296.061 23.782 299.181 26.8896 303.024 26.8896H322.469V0.590698H330.386V47.9236C330.386 50.5433 330.747 52.6749 331.495 54.2672C332.243 55.8596 333.894 58.3764 336.55 58.3764H338.304V58.4535H330.412C328.349 58.4535 326.75 58.1967 325.615 57.6573C324.48 57.1437 323.655 56.1164 323.191 54.6011C322.727 53.0858 322.495 50.8515 322.495 47.9493V30.4081H296.086V58.4535H288.169H288.143Z" fill="#0D283F"/>
<path d="M209.744 26.8896V0.590698H217.661V47.9236C217.661 50.5433 218.023 52.6749 218.77 54.2672C219.518 55.8596 221.169 58.3764 223.825 58.3764H225.579V58.4535H217.687C215.624 58.4535 214.025 58.1967 212.89 57.6573C211.756 57.1437 210.93 56.1164 210.466 54.6011C210.002 53.0858 209.77 50.8515 209.77 47.9493V30.4081" fill="#0D283F"/>
<path d="M428.979 58.4535V56.7071L461.783 9.45117C463.356 7.19111 461.731 4.1092 458.972 4.1092H444.375C440.842 4.1092 438.134 4.90536 436.226 6.52336C434.317 8.14136 431.661 10.6326 431.661 14.1511L431.584 14.2024V7.62771C431.584 6.44632 431.79 5.34197 432.203 4.2633C432.615 3.18463 433.363 2.31143 434.446 1.64368C435.529 0.975932 437.077 0.642059 439.063 0.642059H477.36L440.017 57.6316H476.122L476.044 58.5049H428.953L428.979 58.4535Z" fill="#0D283F"/>
<path d="M496.057 58.4535C493.994 58.4535 492.395 58.1967 491.26 57.6573C490.125 57.1437 489.3 56.1164 488.836 54.6011C488.372 53.0858 488.14 50.8515 488.14 47.9493V5.72721L496.057 0.590698V47.9236C496.057 50.5433 496.418 52.6749 497.166 54.2672C497.914 55.8596 499.59 58.4278 502.221 58.4278H503.974H496.057V58.4535Z" fill="#0D283F"/>
<path d="M360.431 13.1495C360.431 9.68232 360.251 7.03702 359.786 5.23924C359.322 3.44146 358.523 2.2087 357.388 1.59232C356.253 0.950256 354.654 0.642065 352.591 0.616383L346.427 0.565018C349.058 0.565018 350.734 3.62124 351.456 5.54743C352.178 7.47362 352.514 9.99052 352.514 13.0981L351.611 92.3031L351.534 93.6386C350.966 99.5969 348.955 109.639 336.241 111C359.167 111 359.451 96.4893 359.528 92.3545L360.431 13.1495Z" fill="#0D283F"/>
<path d="M87.7348 58.3764C85.3622 57.9398 83.4022 56.6557 81.8033 54.5754C80.2043 52.4951 78.7859 49.593 77.5222 45.869L62.8481 2.67098L69.5534 0.410919L84.2017 43.6347C85.2075 46.6138 86.3422 49.105 87.5543 51.1083C88.7664 53.1115 90.1332 54.5241 91.5774 55.3459C93.0216 56.1677 95.0074 57.7344 96.6579 57.1694L96.7095 57.2207C93.0732 58.4278 90.0816 58.8387 87.709 58.3764H87.7348Z" fill="#0D283F"/>
<path d="M108.624 58.5819C106.561 58.5819 104.962 58.3251 103.828 57.7858C102.693 57.2721 101.868 56.2448 101.403 54.7295C100.939 53.2143 100.707 50.9799 100.707 48.0777V5.85563L108.624 0.719116V48.0521C108.624 50.6717 108.985 52.8033 109.733 54.3957C110.481 55.988 112.157 58.5562 114.788 58.5562H116.542H108.624V58.5819Z" fill="#0D283F"/>
<path d="M414.047 57.9655C411.674 57.5289 409.714 56.2448 408.115 54.1645C406.516 52.0842 405.098 49.1821 403.834 45.4581L389.186 2.23438L395.891 -0.0256805L410.54 43.1981C411.545 46.1772 412.68 48.6684 413.892 50.6717C415.104 52.6749 416.471 54.0875 417.915 54.9093C419.359 55.7311 421.345 57.2978 422.996 56.7328L423.047 56.7841C419.411 57.9912 416.42 58.4021 414.047 57.9398V57.9655Z" fill="#0D283F"/>
<path d="M62.9 2.36279C59.8827 8.86048 33.3971 57.118 48.1743 56.6044C48.9738 56.4759 49.7217 55.8082 50.3406 55.012C52.7132 51.5962 54.0027 47.1788 56.5043 43.4292C61.8169 34.0551 71.9263 34.954 80.1015 39.885C51.1143 26.1448 58.4643 63.2561 44.7444 57.4005C34.7381 50.2608 57.7164 11.0692 62.9258 2.36279H62.9Z" fill="#E53D38"/>
<path d="M336.034 110.974C312.231 111.411 313.288 89.966 331.392 80.4634C342.533 73.9401 344.777 70.2931 338.33 58.4278C349.522 75.7635 335.106 77.0476 324.636 86.9354C313.778 99.0833 320.896 109.87 336.034 110.974Z" fill="#E53D38"/>
<path d="M389.237 1.95187C386.22 8.44956 359.734 56.7071 374.512 56.1934C375.311 56.065 376.059 55.3973 376.678 54.6011C379.051 51.1853 380.34 46.7679 382.842 43.0183C388.154 33.6441 398.264 34.543 406.439 39.4741C377.452 25.7339 384.802 62.8452 371.082 56.9896C361.076 49.8498 384.054 10.6583 389.263 1.95187H389.237Z" fill="#E53D38"/>
</g>
<defs>
<clipPath id="clip0_19_251">
<rect width="504" height="111" fill="white"/>
</clipPath>
</defs>
</svg>
